<?xml version="1.0" standalone="no"?>
<!DOCTYPE svg PUBLIC "-//W3C//DTD SVG 1.1//EN" "http://www.w3.org/Graphics/SVG/1.1/DTD/svg11.dtd" >
<svg xmlns="http://www.w3.org/2000/svg" xmlns:xlink="http://www.w3.org/1999/xlink" version="1.1">
<metadata></metadata>
<defs>
<font id="faster_oneregular" horiz-adv-x="1228" >
<font-face units-per-em="2048" ascent="1638" descent="-410" />
<missing-glyph horiz-adv-x="409" />
<glyph unicode="&#xfb01;" horiz-adv-x="2211" d="M-516 98h885l-17 -92zM-481 297h884l-16 -92zM-446 494h884l-16 -93zM-412 690h885l-16 -92zM-377 887h885l-16 -92zM-342 1083h883l-15 -92zM418 0l188 1083h682l-94 -307h-297l-25 -139h271l-41 -244h-271l-69 -393h-344zM692 98h885l-16 -92zM727 297h885l-17 -92z M762 494h885l-17 -93zM797 690h884l-16 -92zM831 887h885l-16 -92zM866 1083h883l-14 -92zM1628 0l189 1083h360l-190 -1083h-359z" />
<glyph unicode="&#xfb02;" horiz-adv-x="2371" d="M-516 98h885l-17 -92zM-481 297h884l-16 -92zM-446 494h884l-16 -93zM-412 690h885l-16 -92zM-377 887h885l-16 -92zM-342 1083h883l-15 -92zM418 0l188 1083h682l-94 -307h-297l-25 -139h271l-41 -244h-271l-69 -393h-344zM692 98h885l-16 -92zM727 297h885l-17 -92z M762 494h885l-17 -93zM797 690h884l-16 -92zM831 887h885l-16 -92zM866 1083h883l-14 -92zM1628 0l189 1083h360l-137 -782h307l-53 -301h-666z" />
<glyph horiz-adv-x="0" />
<glyph unicode="&#xd;" horiz-adv-x="681" />
<glyph unicode=" "  horiz-adv-x="409" />
<glyph unicode="&#x09;" horiz-adv-x="409" />
<glyph unicode="&#xa0;" horiz-adv-x="409" />
<glyph unicode="!" horiz-adv-x="1093" d="M-451 98h836v-8q0 -47 16 -84zM-416 297h873q-35 -37 -54 -88zM-381 494h877l-11 -93zM-346 690h862l-10 -92zM-311 887h850l-11 -92zM-276 1083h835l-10 -92zM446 90q0 117 63.5 166t180.5 49t160 -25.5t43 -82.5q0 -115 -54.5 -163t-180.5 -48t-169 23.5t-43 80.5z M541 348l96 877q8 55 84 55h303q63 0 63 -41q0 -10 -2 -14l-215 -877h-329z" />
<glyph unicode="&#x22;" horiz-adv-x="1361" d="M-205 690h637v-92zM-170 887h602v-92zM-135 1083h567v-92zM494 563v473q0 74 20 189q8 55 82 55h246q63 0 63 -43l-22 -131q-2 -8 -195 -543h-194zM981 563v473q0 74 20 189q8 55 82 55h246q64 0 64 -43l-23 -131q-2 -8 -194 -543h-195z" />
<glyph unicode="#" horiz-adv-x="1527" d="M0 307l39 96q14 37 31.5 48.5t48.5 15.5h225l135 342h-280l39 98q20 49 45 56q12 4 34 8h226l135 340q10 20 18 28q23 23 70 23h104l-155 -391h368l136 340q10 20 18 28q23 23 70 23h104l-156 -391h273l-37 -99q-20 -49 -45 -57q-12 -2 -35 -6h-219l-135 -342h272 l-37 -96q-16 -37 -32.5 -48.5t-47.5 -15.5h-219l-133 -338q-10 -20 -18 -28q-23 -23 -70 -23h-104l153 389h-368l-134 -338q-10 -20 -18 -28q-23 -23 -70 -23h-104l154 389h-281zM516 467h369l135 342h-369z" />
<glyph unicode="$" horiz-adv-x="1576" d="M-340 98h735l-30 -90zM-326 887h883q-6 -22 -12 -92zM-305 690h850q4 -55 16 -92zM-303 297h766l-31 -90zM-266 1083h887l-37 -90zM-258 494h883q71 -70 186 -93zM-90 1280h891q-68 -43 -101 -84zM442 51l115 326q152 -45 330 -45q74 0 141 8l14 86l-118 14 q-178 23 -249 94.5t-71 196.5q0 219 104.5 377t317.5 192l37 170h246l-33 -163q150 -10 266 -33l-112 -318h-293q-68 0 -95.5 -23.5t-40.5 -84.5l121 -14q184 -23 260 -91.5t76 -189.5q0 -219 -117.5 -381t-343.5 -170l-43 -207h-252l46 207q-180 14 -306 49z" />
<glyph unicode="%" horiz-adv-x="1988" d="M125 680q0 66 20.5 180.5t45 185t69.5 128t117 82t203 24.5t193.5 -56.5t62.5 -174.5q0 -68 -20.5 -183.5t-45.5 -185.5t-70 -127q-80 -106 -292 -107q-156 0 -219.5 56.5t-63.5 177.5zM377 653h37q96 0 104 49l66 371h-41q-92 0 -101 -47zM629 -82l551 1393q10 20 18 28 q23 23 70 23h104l-551 -1393q-10 -20 -18 -28q-23 -23 -70 -23h-104zM1153 215q0 66 20.5 180.5t45 185t69.5 128t117 82t203 24.5t193.5 -56.5t62.5 -174.5q0 -68 -20.5 -183.5t-45 -185.5t-69.5 -127q-80 -106 -293 -106q-156 0 -219.5 56t-63.5 177zM1405 188h37 q96 0 104 50l66 370h-41q-92 0 -101 -47z" />
<glyph unicode="&#x26;" horiz-adv-x="1703" d="M-512 297h866v-92zM-494 494h885q-23 -86 -22 -93zM-440 98h815q16 -51 51 -92zM-381 690h885q-39 -43 -64 -88zM-350 887h885l-19 -92zM-279 1083h883q-23 -47 -37 -90zM-111 1280h881q-51 -33 -96 -84zM416 244q0 162 65 305q35 76 100.5 129t155.5 65v9l-155 59 q49 272 158.5 370.5t291.5 98.5t369 -43l-111 -291h-172q-63 0 -94 -17.5t-39 -68.5l-12 -78h713l-95 -286h-135l-123 -701l-246 -31v279q-248 -74 -389 -74q-283 0 -282 275zM838 369q0 -76 106 -76q74 0 143 10v193h-227q-23 -82 -22 -127z" />
<glyph unicode="'" horiz-adv-x="874" d="M-205 690h637v-92zM-170 887h602v-92zM-135 1083h567v-92zM494 563v473q0 74 20 189q8 55 82 55h246q63 0 63 -43l-22 -131q-2 -8 -195 -543h-194z" />
<glyph unicode="(" horiz-adv-x="1142" d="M-430 494h872q-4 -62 -4 -93zM-414 690h885l-16 -92zM-412 297h854q8 -61 15 -92zM-360 887h882l-26 -92zM-328 98h817q18 -49 50 -92zM-270 1083h882q-23 -39 -47 -90zM-115 1280h883q-53 -49 -80 -86zM500 381q0 115 24 258q129 709 631 774l-33 -301 q-37 -14 -62.5 -33.5t-62 -66.5t-67.5 -141.5t-56.5 -239t-25.5 -232.5t19.5 -139t37 -64.5t49.5 -29.5l-71 -301q-383 53 -383 516z" />
<glyph unicode=")" horiz-adv-x="1048" d="M-573 98h878l-10 -92zM-434 297h883q-37 -57 -84 -86zM-360 1280h882l-22 -92zM-356 494h884q-23 -76 -28 -93zM-317 690h884l-16 -92zM-317 1083h790l-6 -26q47 -15 84 -66zM-287 887h869q2 -8 2 -25.5t-4 -66.5zM340 -156l33 301q31 12 48 22.5t49 42.5t54 77 q55 115 88 297t33 269t-18.5 138t-38 68.5t-49.5 32.5l73 301q383 -53 383 -514q0 -104 -26 -261q-123 -707 -629 -774z" />
<glyph unicode="*" horiz-adv-x="1327" d="M-369 1083h676l-43 -90zM-346 690h678l-19 -24q-33 -47 -37 -64zM-322 887h558q6 -57 67 -80l29 -12zM-233 494h555q2 -5 102 -93zM297 898q0 24 16 56l70 148q29 59 61 59q4 0 21 -4l104 -37l123 -112l-24 180l20 119q8 55 84 55h148q61 0 61 -43q0 -8 -20 -131 l-91 -182l168 116l111 33q6 2 16 2q37 0 47 -55l21 -146q2 -10 2 -28q0 -53 -43 -64l-117 -33h-184l131 -112l49 -96q4 -8 4 -33t-49 -58l-131 -90q-35 -25 -56.5 -24.5t-35.5 22.5l-64 99l-14 168l-80 -170l-82 -95q-18 -23 -41.5 -22.5t-48.5 22.5l-104 90 q-31 25 -31 48.5t18 42.5l84 96l162 108h-176l-100 37q-29 10 -29 34z" />
<glyph unicode="+" d="M145 492l52 294h303l57 318h279l-58 -318h305l-51 -294h-305l-57 -320h-279l58 320h-304z" />
<glyph unicode="," horiz-adv-x="665" d="M-326 297h473q-12 -41 -18 -92zM-315 98h436q25 -78 78 -100zM164 -250l115 295q-94 16 -95 102q0 25 6 56q25 123 76 171t164 48t153 -31t40 -102q0 -141 -115 -320l-180 -278z" />
<glyph unicode="-" horiz-adv-x="716" d="M0 494h680l-16 -93zM35 690h680l-17 -92z" />
<glyph unicode="." horiz-adv-x="665" d="M-326 297h473q-12 -41 -18 -92zM-315 98h436q4 -59 22 -92zM182 103.5q0 56.5 8 99.5q21 121 73 170t166 49t154 -31t40 -88t-9 -100q-20 -121 -72.5 -168t-166 -47t-153.5 29.5t-40 86z" />
<glyph unicode="/" horiz-adv-x="1333" d="M-307 98h645l-49 -92zM-195 297h646l-50 -92zM-82 494h645l-49 -93zM31 690h645l-49 -92zM143 887h645l-49 -92zM256 1083h643l-47 -92zM303 -82l797 1393q10 20 18 28q23 23 70 23h145l-796 -1393q-10 -20 -19 -28q-22 -23 -69 -23h-146zM367 1280h643l-47 -92z" />
<glyph unicode="0" horiz-adv-x="1583" d="M-512 494h877q-5 -36 -9 -93zM-498 297h854q4 -49 13 -92zM-492 690h885l-16 -92zM-444 887h884l-24 -92zM-389 98h795q28 -55 73 -92zM-365 1083h881q-29 -57 -41 -90zM-186 1280h880q-59 -39 -98 -84zM418 350q0 125 30.5 296t72.5 288t114 205q137 172 452 172 q238 0 336.5 -93.5t98.5 -289.5q0 -109 -32 -288t-73 -295t-112 -206q-137 -170 -453 -170q-238 0 -336 92.5t-98 288.5zM788 299h82q88 0 127 19.5t52 89.5l100 573h-92q-86 0 -120 -18.5t-46 -90.5z" />
<glyph unicode="1" horiz-adv-x="1452" d="M-512 887h885l-17 -92zM-479 1083h882l-14 -92zM-309 98h884l-16 -92zM-274 297h884l-16 -92zM-240 494h885l-16 -93zM-215 1280h885l-242 -55l-4 -19zM-205 690h885l-16 -92zM432 870l51 304l465 106h307l-223 -1280h-409l151 870h-342z" />
<glyph unicode="2" horiz-adv-x="1654" d="M-512 98h885l-17 -92zM-477 297h885l-17 -92zM-403 494h884v-2q-25 -41 -43 -89zM-270 1083h868v-92zM-266 1280h866v-92zM-199 690h881q-53 -35 -109 -82zM203 887h897l-180 -76zM418 0l45 256q20 123 58 182.5t63.5 91t68.5 63.5t77 53.5t94.5 51t101.5 48t116.5 51 t124.5 55.5l19 121h-527v260q258 78 504 78q274 0 361 -74q82 -72 82 -216t-40 -245.5t-154 -177.5t-187 -106q-123 -51 -289 -107l-10 -57h549l-58 -328h-999z" />
<glyph unicode="3" horiz-adv-x="1628" d="M-512 98h885l-29 -92zM-446 297h884l-28 -92zM-281 1083h869v-92zM-276 1280h866v-92zM-197 494h885l-16 -93zM-162 690h883l-16 -92zM-129 887h885l-19 -92zM414 23l114 337q176 -47 305.5 -47t223.5 13l22 131l-329 35l51 296l344 41l22 144h-516v260q250 78 471 78 q201 0 316 -41q129 -45 129 -201q0 -266 -221 -379l-3 -10q145 -72 146 -231q0 -479 -635 -480q-233 0 -440 54z" />
<glyph unicode="4" horiz-adv-x="1662" d="M-512 297h885l-17 -92zM-471 494h885l-11 -19l-12 -74zM-362 690h882l-49 -90zM-254 887h881l-49 -88zM-145 1083h878l-47 -88zM-41 1280h881l-47 -90zM55 98h885l-16 -92zM420 205l45 256l444 819h690l-129 -723h127l-61 -352h-127l-35 -205h-389l35 205h-600zM889 557 h192l74 416h-20z" />
<glyph unicode="5" horiz-adv-x="1636" d="M-512 98h885l-29 -92zM-444 297h882l-30 -90zM-344 690h862v-22q0 -37 6 -70zM-330 887h885l-20 -92zM-287 1083h883l-18 -92zM-244 1280h881l-19 -92zM-41 494h621q63 -59 208 -88zM412 23l114 337q176 -47 315.5 -47t231.5 13l17 102l-142 16q-207 25 -287.5 71 t-80.5 153q0 39 8 80l112 532h885l-92 -352l-455 28l-22 -125l112 -14q215 -29 303.5 -97.5t88.5 -202.5t-40 -238.5t-101.5 -163t-152.5 -92t-171 -44t-183 -10.5q-254 0 -460 54z" />
<glyph unicode="6" horiz-adv-x="1574" d="M-512 494h874q0 -6 -3 -41t-3 -52zM-498 297h856q3 -45 13 -92zM-492 690h885q-4 -12 -18 -92zM-440 887h884q-12 -33 -26 -92zM-348 98h758q29 -55 67 -88zM-346 1083h881q-33 -57 -48 -88zM-139 1280h878q-63 -39 -110 -82zM418 362q0 115 29.5 285t74.5 287t127 205 q158 172 527 172q74 0 192.5 -17.5t173.5 -36.5l-102 -284h-516l-27 -144h98q201 0 318 -49q135 -57 135 -250q0 -281 -154.5 -421t-449.5 -140q-229 0 -327.5 96.5t-98.5 296.5zM799 279h80q66 0 93 15t38 71l28 161h-77q-66 0 -94.5 -15t-39.5 -71z" />
<glyph unicode="7" horiz-adv-x="1437" d="M-512 887h883l-15 -92zM-506 98h885l-49 -90zM-487 1083h878l-10 -92zM-463 1280h875l-11 -92zM-395 297h884l-49 -90zM-285 494h883l-49 -88zM-176 690h885l-50 -90zM395 0l510 918h-469l37 362h963l-45 -256l-555 -1024h-441z" />
<glyph unicode="8" horiz-adv-x="1599" d="M-512 297h864q-2 -10 -2 -35.5t6 -56.5zM-477 494h885l-2 -7q-23 -43 -35 -84zM-399 98h788q27 -53 78 -92zM-369 887h865v-23q0 -47 4 -69zM-344 1083h883q-20 -45 -31 -90zM-322 690h854q7 -14 23 -39q-35 -20 -61 -49zM-162 1280h881q-55 -33 -105 -84zM412 268 q0 117 63.5 216.5t165.5 146.5l2 14q-86 74 -86 208t48 224t132 140q158 94 354.5 94t313.5 -68.5t117 -222.5q0 -117 -53.5 -218.5t-137.5 -156.5l-2 -14q59 -33 93 -93.5t34 -136.5q0 -150 -82 -249q-152 -182 -506 -183q-457 0 -456 299zM823 279h80q66 0 93.5 15 t37.5 71l8 47l-120 67q-23 13 -37 13q-23 0 -29 -35zM928 866l114 -69q17 -9 27 -9q39 0 47 37l29 166h-78q-66 0 -95.5 -15t-37.5 -71z" />
<glyph unicode="9" horiz-adv-x="1611" d="M-512 98h883l-31 -90zM-442 297h882l-32 -90zM-420 887h877q-4 -35 -8 -92zM-365 1083h883l-37 -90zM-279 690h730q8 -53 16 -80zM-174 1280h883v-2q-61 -33 -107 -82zM20 494h527q57 -50 127 -66l-2 -10zM410 23l116 337q176 -47 298 -47t218 13l25 141h-98 q-283 0 -371 70.5t-88 214.5q0 279 156.5 419t449.5 140q229 0 328.5 -97.5t99.5 -300.5q0 -113 -28 -272q-63 -352 -201.5 -512t-418.5 -160t-486 54zM926 770h78q66 0 93 15.5t38 70.5l26 145h-80q-66 0 -94.5 -15t-36.5 -71z" />
<glyph unicode=":" horiz-adv-x="665" d="M-326 297h473q-12 -41 -18 -92zM-315 98h436q4 -59 22 -92zM-217 889h473q-12 -41 -18 -92zM-207 690h436q5 -59 23 -92zM182 103.5q0 56.5 8 99.5q21 121 73 170t166 49t154 -31t40 -88t-9 -100q-20 -121 -72.5 -168t-166 -47t-153.5 29.5t-40 86zM291 695.5 q0 56.5 8 99.5q20 120 72.5 169.5t166 49.5t153.5 -31t40 -88t-8 -100q-20 -121 -72.5 -168t-166 -47t-153.5 29.5t-40 86z" />
<glyph unicode=";" horiz-adv-x="665" d="M-326 297h473q-12 -41 -18 -92zM-315 98h436q25 -78 78 -100zM-217 889h473q-12 -41 -18 -92zM-207 690h436q5 -59 23 -92zM164 -250l115 295q-94 16 -95 102q0 25 6 56q25 123 76 171t164 48t153 -31t40 -102q0 -141 -115 -320l-180 -278zM291 695.5q0 56.5 8 99.5 q20 120 72.5 169.5t166 49.5t153.5 -31t40 -88t-8 -100q-20 -121 -72.5 -168t-166 -47t-153.5 29.5t-40 86z" />
<glyph unicode="&#x3c;" d="M197 453l65 372l756 316l82 -275l-588 -221l-2 -14l489 -219l-180 -275z" />
<glyph unicode="=" d="M102 248l52 295h886l-51 -295h-887zM188 735l52 295h886l-51 -295h-887z" />
<glyph unicode="&#x3e;" d="M143 412l588 221l2 14l-489 219l180 275l623 -316l-66 -372l-756 -316z" />
<glyph unicode="?" horiz-adv-x="1249" d="M-410 98h750v-8q0 -53 16 -84zM-371 297h781q-37 -35 -54 -88zM-354 1083h766l-2 -92zM-330 494h776l-10 -93zM-309 690h776l-8 -84l-2 -8zM-184 887h782q-92 -37 -113 -82zM401 90q0 115 62.5 165t180.5 50t161 -25.5t43 -82.5q0 -115 -55.5 -163t-180.5 -48t-168 23.5 t-43 80.5zM471 961l4 292q223 57 416 58q188 0 272 -31t116 -81t32 -128q0 -174 -93.5 -279.5t-312.5 -173.5l-80 -260h-331l41 385q4 37 30.5 57.5t114.5 51.5l221 76l12 69q-49 4 -114.5 4t-175 -13t-152.5 -27z" />
<glyph unicode="@" horiz-adv-x="2187" d="M-451 494h871q-4 -31 -8 -93zM-432 690h885l-17 -92zM-430 297h844q2 -35 14 -92zM-385 887h883q-16 -49 -25 -92zM-324 98h787q23 -47 55 -88zM-283 1083h867q-33 -57 -47 -90zM473 365q0 61 19 180l28 170q33 199 120 340t216 217q240 141 584 141t498.5 -76.5 t154.5 -240.5q0 -25 -8 -78l-146 -834h-194l-88 129q-143 -147 -369 -147q-248 0 -248 240q0 254 148.5 374.5t408.5 120.5h78l27 150q-96 20 -226 20t-180.5 -3t-115 -19.5t-105.5 -44.5q-98 -72 -125 -226l-71 -403q-8 -39 -8.5 -88t22 -91t54.5 -63.5t87 -34.5 q74 -16 215 -16h367l-35 -193q-211 -43 -368.5 -43t-260 15.5t-193.5 51.5t-153 95q-133 125 -133 357zM1401 453h63q66 0 99.5 13t46.5 60l22 127h-61q-70 0 -107 -15t-45 -71z" />
<glyph unicode="A" horiz-adv-x="1742" d="M-512 98h879l-39 -90zM-428 297h879l-39 -90zM-344 494h876l-36 -91zM-260 690h876l-38 -90zM-176 887h874l-36 -90zM-92 1083h872l-37 -88zM-8 1280l835 -88l37 88h-872zM-8 1280h872l-37 -88zM393 0l539 1280h602l90 -1280h-412l-8 203h-321l-80 -203h-410zM1010 528 h164v359h-21z" />
<glyph unicode="B" horiz-adv-x="1585" d="M-512 98h885l-17 -92zM-477 297h885l-17 -92zM-442 494h884l-16 -93zM-408 690h885l-16 -92zM-373 887h885l-16 -92zM-338 1083h883l-15 -92zM-303 1280h883l-17 -92zM418 0l225 1280h631q147 0 213.5 -51t66.5 -158q0 -156 -68.5 -256t-166.5 -125l-2 -12 q184 -35 184 -244q0 -184 -100.5 -309t-282.5 -125h-700zM858 301h152q52 0 78 41q27 42 27 105t-66 63h-154zM948 809h121q94 0 94 133q0 57 -57 57h-123z" />
<glyph unicode="C" horiz-adv-x="1398" d="M-442 494h813q-6 -47 -6 -86zM-420 690h819l-6 -41q-4 -16 -8 -45zM-416 297h783q8 -57 14 -86zM-371 887h820l-25 -84zM-274 1083h806q-29 -53 -40 -82zM-219 98h647q27 -47 61 -75zM8 1280h719q-59 -37 -92 -68zM426 379q0 88 29 260q61 352 211.5 512t476.5 160 q76 0 173 -15.5t142 -38.5l-115 -313q-121 29 -226 29t-150 -20.5t-56 -82.5l-94 -536q74 -16 152 -17q166 0 303 50l-33 -344q-131 -54 -332 -54q-258 0 -369.5 100.5t-111.5 309.5z" />
<glyph unicode="D" horiz-adv-x="1722" d="M-512 98h885l-17 -92zM-477 297h885l-17 -92zM-442 494h884l-16 -93zM-408 690h885l-16 -92zM-373 887h885l-16 -92zM-338 1083h883l-15 -92zM-303 1280h883l-17 -92zM418 0l225 1280h545q264 0 375.5 -93t111.5 -302q0 -106 -24 -246q-61 -344 -210 -491.5t-478 -147.5 h-545zM864 328h162q80 0 119 19.5t51 88.5l72 408q2 12 2 33q0 47 -32.5 61t-102.5 14h-162z" />
<glyph unicode="E" horiz-adv-x="1486" d="M-512 98h885l-17 -92zM-477 297h885l-17 -92zM-442 494h884l-16 -93zM-408 690h885l-16 -92zM-373 887h885l-16 -92zM-338 1083h883l-15 -92zM-303 1280h883l-17 -92zM418 0l225 1280h856l-106 -328h-420l-29 -172h389l-53 -297h-389l-27 -155h477l-57 -328h-866z" />
<glyph unicode="F" horiz-adv-x="1363" d="M-512 98h885l-17 -92zM-477 297h885l-17 -92zM-442 494h884l-16 -93zM-408 690h885l-16 -92zM-373 887h885l-16 -92zM-338 1083h883l-15 -92zM-303 1280h883l-17 -92zM418 0l225 1280h799l-109 -328h-360l-29 -172h332l-55 -305h-332l-82 -475h-389z" />
<glyph unicode="G" horiz-adv-x="1570" d="M-442 494h813q-6 -47 -6 -86zM-420 690h819l-6 -41q-4 -16 -8 -45zM-416 297h783q8 -57 14 -86zM-371 887h820l-25 -84zM-274 1083h806q-29 -53 -40 -82zM-219 98h647q27 -47 61 -75zM8 1280h719q-59 -37 -92 -68zM422 379q0 88 29 260q61 356 216.5 514t516.5 158 q78 0 194.5 -16.5t171.5 -37.5l-112 -313q-154 29 -282 29t-183 -20.5t-66 -82.5l-100 -579h129q70 0 103.5 15.5t43.5 70.5l11 55h-99l56 313h469l-121 -684q-250 -92 -502 -92t-363.5 100.5t-111.5 309.5z" />
<glyph unicode="H" horiz-adv-x="1732" d="M-512 98h885l-17 -92zM-477 297h885l-17 -92zM-442 494h884l-16 -93zM-408 690h885l-16 -92zM-373 887h885l-16 -92zM-338 1083h883l-15 -92zM-303 1280h883l-17 -92zM418 0l225 1280h389l-80 -453h293l80 453h389l-225 -1280h-389l78 453h-293l-78 -453h-389z" />
<glyph unicode="I" horiz-adv-x="1032" d="M-512 98h885l-17 -92zM-477 297h885l-17 -92zM-442 494h884l-16 -93zM-408 690h885l-16 -92zM-373 887h885l-16 -92zM-338 1083h883l-15 -92zM-303 1280h883l-17 -92zM418 0l225 1280h389l-225 -1280h-389z" />
<glyph unicode="J" horiz-adv-x="1159" d="M-567 98h884l-16 -92zM-532 297h884l-16 -92zM-342 1083h883l-15 -92zM-303 1280h883l-17 -92zM-285 494h885l-16 -93zM-250 690h885l-17 -92zM-215 887h885l-17 -92zM362 0l60 328h121q59 0 78.5 17t23.5 44l98 563h-159l59 328h549l-166 -942q-29 -166 -122 -252 t-238 -86h-304z" />
<glyph unicode="K" horiz-adv-x="1579" d="M-512 98h885l-17 -92zM-477 297h885l-17 -92zM-442 494h884l-16 -93zM-408 690h885l-16 -92zM-373 887h885l-16 -92zM-338 1083h883l-15 -92zM-303 1280h883l-17 -92zM418 0l225 1280h389l-92 -522h16q16 66 37 98l258 424h420l-401 -629l186 -651h-420l-112 459 q-6 20 -6 59l2 39h-17l-96 -557h-389z" />
<glyph unicode="L" horiz-adv-x="1273" d="M-512 98h885l-17 -92zM-477 297h885l-17 -92zM-442 494h884l-16 -93zM-408 690h885l-16 -92zM-373 887h885l-16 -92zM-338 1083h883l-15 -92zM-303 1280h883l-17 -92zM418 0l225 1280h389l-168 -952h389l-57 -328h-778z" />
<glyph unicode="M" horiz-adv-x="2095" d="M-512 98h885l-21 -92zM-465 297h885l-23 -92zM-418 494h883l-21 -93zM-371 690h883l-23 -92zM-324 887h881l-20 -92zM-276 1083h880l-22 -92zM-229 1280h878l-20 -92zM414 0l299 1280h508l36 -651h15l266 651h508l-152 -1280h-407l86 621h-14l-256 -621h-297l-43 621h-11 l-133 -621h-405z" />
<glyph unicode="N" horiz-adv-x="1742" d="M-512 98h885l-17 -92zM-477 297h885l-17 -92zM-442 494h884l-16 -93zM-408 690h885l-16 -92zM-373 887h885l-16 -92zM-338 1083h883l-15 -92zM-303 1280h883l-17 -92zM418 0l225 1280h367l209 -455q6 -14 6 -39.5t-4 -58.5h16l98 553h389l-225 -1280h-366l-209 455 q-8 14 -8.5 39.5t4.5 58.5h-17l-96 -553h-389z" />
<glyph unicode="O" horiz-adv-x="1669" d="M-442 494h813q-6 -47 -6 -86zM-420 690h819l-6 -41q-4 -16 -8 -45zM-416 297h783q8 -57 14 -86zM-371 887h820l-25 -84zM-274 1083h806q-29 -53 -40 -82zM-219 98h647q27 -47 61 -75zM8 1280h719q-59 -37 -92 -68zM424 383q0 100 28.5 265t75.5 285t127 208 q154 170 486 170q260 0 370.5 -101.5t110.5 -312.5t-66.5 -441.5t-211 -358.5t-422 -128t-388 101.5t-110.5 312.5zM811 319h162q80 0 118.5 19.5t51.5 89.5l94 533h-164q-78 0 -116.5 -19.5t-51.5 -89.5z" />
<glyph unicode="P" horiz-adv-x="1574" d="M-512 98h885l-17 -92zM-477 297h885l-17 -92zM-442 494h884l-16 -93zM-408 690h883l-16 -92zM-373 887h883l-16 -92zM-338 1083h883l-17 -92zM-303 1280h883l-17 -92zM418 0l225 1280h614q348 0 349 -324q0 -154 -43 -277.5t-95.5 -196t-143.5 -123t-210 -50.5h-254 l-53 -309h-389zM918 637h90q70 0 105.5 15.5t45.5 70.5q27 152 27 166q0 39 -31 51t-92 12h-90z" />
<glyph unicode="Q" horiz-adv-x="1669" d="M-442 494h813q-6 -47 -6 -86zM-420 690h819l-14 -86zM-416 297h783q4 -35 16 -86zM-371 887h820l-25 -84zM-274 1083h806q-29 -53 -40 -82zM-219 98h659q29 -31 82 -75zM8 1280h719q-59 -37 -92 -68zM424 383q0 100 28.5 265t75.5 285t127 208q154 170 486 170 q258 0 369.5 -103.5t111.5 -308.5t-59.5 -392.5t-143.5 -287.5l127 -86l-143 -235l-361 71l15 78l-174 -47q-248 0 -353.5 99.5t-105.5 283.5zM811 319h162q80 0 118.5 19.5t51.5 89.5l94 533h-164q-78 0 -116.5 -19.5t-51.5 -89.5z" />
<glyph unicode="R" horiz-adv-x="1628" d="M-512 98h885l-17 -92zM-477 297h885l-17 -92zM-442 494h884l-16 -93zM-408 690h883l-16 -92zM-373 887h883l-16 -92zM-338 1083h883l-17 -92zM-303 1280h883l-17 -92zM418 0l225 1280h614q350 0 351 -313q0 -129 -39 -246q-72 -221 -226 -295l136 -426h-428l-95 381h-84 l-65 -381h-389zM928 696h90q70 0 105.5 15.5t49 88t13.5 89.5q0 41 -32 52t-103 11h-78z" />
<glyph unicode="S" horiz-adv-x="1634" d="M-340 887h883q-11 -41 -15 -92zM-338 98h735l-30 -90zM-322 690h850q4 -55 17 -92zM-303 297h766l-31 -90zM-283 1083h881l-31 -90zM-268 494h882q68 -66 201 -93zM-129 1280h881q-47 -31 -90 -84zM436 23l115 337q172 -47 314.5 -47t232.5 13l16 102l-170 16 q-195 18 -275.5 88t-80.5 197q0 55 12 123q47 262 172 360.5t384 98.5t458 -51l-107 -328q-178 31 -285.5 31t-185.5 -11l-16 -100l137 -14q209 -23 297 -99.5t88 -206.5q0 -131 -55 -270q-31 -72 -64.5 -120t-86 -81.5t-95.5 -51t-111 -25.5q-94 -14 -233 -15 q-254 0 -461 54z" />
<glyph unicode="T" horiz-adv-x="1488" d="M-369 1083h883l-14 -92zM-334 1280h883l-17 -92zM-262 98h885l-17 -92zM-227 297h884l-16 -92zM-193 494h885l-16 -93zM-158 690h885l-16 -92zM-123 887h885l-17 -92zM555 952l59 328h953l-60 -328h-282l-166 -952h-389l166 952h-281z" />
<glyph unicode="U" horiz-adv-x="1667" d="M-442 494h876q-8 -68 -10 -93zM-440 297h860q0 -49 6 -92zM-414 690h883l-16 -92zM-381 887h885l-17 -92zM-346 98h801q27 -57 65 -92zM-344 1083h883l-17 -92zM-309 1280h882l-16 -92zM481 301q0 100 29 260l127 719h389l-170 -961h139q72 0 102.5 19.5t43.5 89.5 l151 852h389l-127 -719q-31 -174 -70.5 -280.5t-111.5 -180t-177 -102.5t-267 -29q-248 0 -347.5 75t-99.5 257z" />
<glyph unicode="V" horiz-adv-x="1624" d="M-369 1280h863l4 -92zM-358 1083h862l6 -92zM-346 887h862l4 -92zM-334 690h860l6 -92zM-322 494h861l6 -93zM-311 297h862l6 -92zM-299 98h862l6 -92zM555 1280h432v-813h19l309 813h411l-526 -1280h-569z" />
<glyph unicode="W" horiz-adv-x="2033" d="M-348 98h805v-92zM-348 297h805v-92zM-348 494h805v-93zM-348 690h805v-92zM-348 887h805v-92zM-348 1083h805v-92zM-348 1280h805v-92zM518 0v1280h408l-37 -715h12l266 715h310v-715h12l219 715h408l-416 -1280h-516v471h-23l-170 -471h-473z" />
<glyph unicode="X" horiz-adv-x="1581" d="M-592 98h885l-51 -88zM-475 297h883l-52 -88zM-375 1280h844q7 -31 23 -92zM-362 494h882l-51 -88zM-328 1083h844q7 -31 23 -92zM-281 887h844l23 -92zM-260 690h872l6 -26l-36 -64zM307 0l377 649l-152 631h443l72 -342h20l195 342h421l-380 -618l155 -662h-432 l-82 369h-16l-209 -369h-412z" />
<glyph unicode="Y" horiz-adv-x="1339" d="M-494 1280h848l19 -92zM-457 1083h848l19 -92zM-418 887h848l19 -92zM-389 98h883l-17 -92zM-381 690h850l18 -92zM-354 297h880l-14 -92zM-342 494h850l18 -93zM416 1280h430l26 -451h15l188 451h430l-516 -932l-59 -348h-389l59 348z" />
<glyph unicode="Z" horiz-adv-x="1531" d="M-1153 98h1413l-16 -92zM-590 297h885l-16 -92zM-401 494h884l-77 -86zM-371 1083h875l-6 -92zM-354 1280h872l-6 -92zM-223 690h885l-78 -86zM-47 887h885l-78 -86zM307 0l45 256l617 684l-4 12h-408l23 328h993l-45 -256l-613 -684l3 -12h495l-57 -328h-1049z" />
<glyph unicode="[" horiz-adv-x="1140" d="M-512 98h885q-11 -39 -11 -92zM-477 297h885l-17 -92zM-442 494h884l-16 -93zM-408 690h885l-16 -92zM-373 887h885l-16 -92zM-338 1083h883l-15 -92zM-303 1280h907q-33 -31 -41 -92zM424 20q0 10 4 39l199 1119q25 127 143 170q119 45 381 45l-35 -301q-6 0 -164 -15 l-161 -917l159 -15l-71 -301q-203 0 -295 20.5t-126 58.5t-34 97z" />
<glyph unicode="\" horiz-adv-x="1030" d="M0 1362h145q39 0 55.5 -11.5t32.5 -39.5l797 -1393h-145q-39 0 -55.5 11.5t-32.5 39.5z" />
<glyph unicode="]" horiz-adv-x="1089" d="M-430 98h725l-10 -92zM-395 297h882l-16 -92zM-360 494h882l-16 -93zM-326 690h883l-16 -92zM-291 887h881l-17 -92zM-256 1083h721l-21 -92zM-221 1280h731l-21 -92zM328 -156l34 301l164 15l162 917q-154 14 -160 15l72 301q203 0 295 -20.5t126 -58.5t34 -97 q0 -10 -4 -39l-199 -1119q-16 -102 -98 -147q-82 -47 -166 -55q-127 -12 -260 -13z" />
<glyph unicode="^" d="M127 537l416 665h354l184 -665l-278 -91l-129 459h-12l-291 -459z" />
<glyph unicode="_" horiz-adv-x="831" d="M-840 -166h647l-18 -110zM-143 -276l39 221q10 55 43.5 70.5t103.5 15.5h721l-39 -221q-10 -55 -44 -70.5t-103 -15.5h-721z" />
<glyph unicode="`" horiz-adv-x="571" d="M-885 1481h869q-6 -8 -21 -23q-27 -30 -39 -57zM-823 1315h751q12 -19 84 -80zM-22.5 1363.5q-0.5 14.5 18.5 37.5l129 151q18 23 32.5 23t26.5 -8l387 -285l-84 -117l-356 72q-33 6 -53 25l-92 79q-8 8 -8.5 22.5z" />
<glyph unicode="a" horiz-adv-x="1552" d="M-512 98h879l-39 -90zM-428 297h879l-39 -90zM-344 494h876l-36 -91zM-260 690h876l-38 -90zM-176 887h874l-36 -90zM-92 1083h872l-37 -88zM393 0l455 1083h508l80 -1083h-359l-8 166h-258l-63 -166h-355zM920 459h149v311h-29z" />
<glyph unicode="b" horiz-adv-x="1462" d="M-516 98h885l-17 -92zM-481 297h884l-16 -92zM-446 494h884l-16 -93zM-412 690h885l-16 -92zM-377 887h885l-16 -92zM-342 1083h883l-15 -92zM418 0l188 1083h553q233 0 234 -192q0 -106 -50.5 -192.5t-121.5 -118.5l-2 -13q135 -43 135 -186q0 -180 -97.5 -280.5 t-293.5 -100.5h-545zM809 268h127q72 0 72 105q0 47 -45 47h-127zM883 692h112q61 0 62 90q0 41 -41 41h-111z" />
<glyph unicode="c" horiz-adv-x="1269" d="M-451 494h818q-8 -63 -11 -86zM-442 297h796q0 -33 8 -86zM-414 690h820l-19 -86zM-332 887h809q-25 -53 -35 -82zM-264 98h661q25 -49 54 -75zM-57 1083h712q-49 -29 -84 -67zM414 319q0 80 24 222q51 297 177 430t403 133q199 0 272 -45l-104 -285q-102 29 -186.5 29 t-118 -14.5t-41.5 -55.5l-80 -438q43 -10 148.5 -10t228.5 45l-33 -307q-112 -47 -308 -47q-1 0 -2 -1q-195 0 -287 83q-93 83 -93 261z" />
<glyph unicode="d" horiz-adv-x="1587" d="M-518 98h885l-17 -92zM-483 297h884l-16 -92zM-449 494h885l-16 -93zM-414 690h885l-16 -92zM-379 887h885l-17 -92zM-344 1083h883l-15 -92zM418 0l188 1083h461q223 0 319.5 -79.5t96.5 -255.5q0 -84 -23 -207q-51 -291 -177 -416t-406 -125h-459zM813 293h119 q59 0 91 15.5t40 62.5l59 338q2 8 2 32q0 43 -106 43h-119z" />
<glyph unicode="e" horiz-adv-x="1343" d="M-518 98h885l-17 -92zM-483 297h884l-16 -92zM-449 494h885l-16 -93zM-414 690h885l-16 -92zM-379 887h885l-17 -92zM-344 1083h883l-15 -92zM418 0l188 1083h721l-96 -307h-334l-25 -139h308l-35 -197h-305l-25 -139h379l-53 -301h-723z" />
<glyph unicode="f" horiz-adv-x="1210" d="M-516 98h885l-17 -92zM-481 297h884l-16 -92zM-446 494h884l-16 -93zM-412 690h885l-16 -92zM-377 887h885l-16 -92zM-342 1083h883l-15 -92zM418 0l188 1083h682l-94 -307h-297l-25 -139h271l-41 -244h-271l-69 -393h-344z" />
<glyph unicode="g" horiz-adv-x="1425" d="M-455 494h817q-8 -63 -10 -86zM-446 297h796q0 -33 8 -86zM-418 690h819l-18 -86zM-336 887h809q-25 -53 -35 -82zM-268 98h661q25 -49 53 -75zM-61 1083h712q-49 -29 -84 -67zM412 324q0 88 28.5 251.5t87.5 280.5q129 248 523 248q229 0 319 -45l-104 -285 q-129 29 -232.5 29t-146.5 -14.5t-51 -55.5l-86 -471h94q51 0 78.5 11.5t33.5 50.5l15 79h-84l41 234h413l-102 -580q-209 -82 -426 -82t-309 85t-92 264z" />
<glyph unicode="h" horiz-adv-x="1581" d="M-518 98h885l-17 -92zM-483 297h884l-16 -92zM-449 494h885l-16 -93zM-414 690h885l-16 -92zM-379 887h885l-17 -92zM-344 1083h883l-15 -92zM418 0l188 1083h346l-67 -374h231l66 374h346l-191 -1083h-344l64 375h-230l-65 -375h-344z" />
<glyph unicode="i" horiz-adv-x="1001" d="M-518 98h885l-17 -92zM-483 297h884l-16 -92zM-449 494h885l-16 -93zM-414 690h885l-16 -92zM-379 887h885l-17 -92zM-344 1083h883l-15 -92zM418 0l188 1083h361l-191 -1083h-358z" />
<glyph unicode="j" horiz-adv-x="1093" d="M-571 98h884l-16 -92zM-535 297h885l-16 -92zM-352 887h884l-16 -92zM-315 1083h882l-14 -92zM-285 494h885l-16 -93zM-250 690h885l-17 -92zM360 0l54 293h145q70 0 76 41l76 442h-133l55 307h477l-139 -794q-53 -289 -314 -289h-297z" />
<glyph unicode="k" horiz-adv-x="1427" d="M-518 98h885l-17 -92zM-483 297h884l-16 -92zM-449 494h885l-16 -93zM-414 690h885l-16 -92zM-379 887h885l-17 -92zM-344 1083h883l-15 -92zM418 0l188 1083h346l-59 -331h10l211 331h375l-344 -530l162 -553h-375l-96 354h-13l-61 -354h-344z" />
<glyph unicode="l" horiz-adv-x="1161" d="M-518 98h885l-17 -92zM-483 297h884l-16 -92zM-449 494h885l-16 -93zM-414 690h885l-16 -92zM-379 887h885l-17 -92zM-344 1083h883l-15 -92zM418 0l188 1083h361l-138 -782h308l-54 -301h-665z" />
<glyph unicode="m" horiz-adv-x="1845" d="M-518 98h889l-21 -92zM-471 297h889l-23 -92zM-424 494h887l-21 -93zM-377 690h883l-23 -92zM-330 887h881l-21 -92zM-283 1083h881l-23 -92zM418 0l248 1083h444l31 -508h8l207 508h444l-131 -1083h-352l55 440h-10l-184 -440h-271l-30 440h-11l-98 -440h-350z" />
<glyph unicode="n" horiz-adv-x="1574" d="M-518 98h885l-17 -92zM-483 297h884l-16 -92zM-449 494h885l-16 -93zM-414 690h885l-16 -92zM-379 887h885l-17 -92zM-344 1083h883l-15 -92zM418 0l188 1083h279l213 -403h12l70 403h342l-191 -1083h-278l-211 406h-8l-72 -406h-344z" />
<glyph unicode="o" horiz-adv-x="1554" d="M-424 494h817q-8 -63 -10 -86zM-416 297h797q0 -33 8 -86zM-387 690h819l-18 -86zM-305 887h809q-25 -53 -35 -82zM-238 98h662q25 -49 53 -75zM-31 1083h713q-49 -29 -84 -67zM442 324q0 92 23 217q51 295 178 429t399 134q221 0 315.5 -85t94.5 -265q0 -88 -22 -213 q-51 -295 -180.5 -430.5t-405.5 -135.5q-217 0 -309.5 85t-92.5 264zM782 287h121q59 0 89 14t40 64l78 428h-125q-57 0 -89 -14.5t-38 -61.5z" />
<glyph unicode="p" horiz-adv-x="1423" d="M-518 98h885l-17 -92zM-483 297h884l-16 -92zM-449 494h885l-16 -93zM-414 690h885l-16 -92zM-379 887h885l-17 -92zM-344 1083h883l-15 -92zM418 0l188 1083h520q297 0 297 -280q0 -127 -36.5 -233.5t-79.5 -168t-122 -104.5t-179 -43h-199l-45 -254h-344zM856 530h64 q47 0 73.5 11.5t32.5 48.5l25 139q0 2 2 12q0 43 -88 43h-66z" />
<glyph unicode="q" horiz-adv-x="1501" d="M-453 494h818q-8 -63 -11 -86zM-444 297h796q0 -33 8 -86zM-416 690h819l-18 -86zM-334 887h809q-25 -53 -35 -82zM-266 98h661q25 -49 54 -75zM-59 1083h712q-49 -29 -84 -67zM414 317q0 92 22 224q51 295 179 429t401 134q221 0 315 -85t94 -265q0 -358 -172 -559 l90 -66l-122 -215l-320 66l12 73l-153 -51q-186 0 -266 74.5t-80 240.5zM756 287h121q59 0 88.5 14t40.5 64l77 428h-125q-57 0 -88.5 -14.5t-38.5 -61.5z" />
<glyph unicode="r" horiz-adv-x="1476" d="M-518 98h885l-17 -92zM-483 297h884l-16 -92zM-449 494h885l-16 -93zM-414 690h885l-16 -92zM-379 887h885l-17 -92zM-344 1083h883l-15 -92zM418 0l188 1083h520q299 0 299 -270q0 -123 -49 -255t-166 -198l117 -360h-383l-78 315h-49l-55 -315h-344zM866 596h66 q94 0 106 61l13 72q0 2 2 21q0 34 -103 34h-6h-45z" />
<glyph unicode="s" horiz-adv-x="1470" d="M-487 98h884l-28 -92zM-420 297h883l-29 -90zM-367 690h873q-4 -49 -4 -76v-16zM-330 887h883q-12 -33 -27 -92zM-287 494h807q18 -53 60 -93zM-188 1083h882q-55 -41 -84 -86zM438 23l101 303q160 -45 279.5 -45t168.5 6l10 65l-129 15q-166 18 -235.5 77.5t-69.5 169.5 q0 41 10 103q41 219 147.5 303t325 84t390.5 -43l-99 -299q-139 33 -237.5 33t-145.5 -7l-10 -59l103 -12q329 -43 329 -272q0 -28 -12 -100.5t-41 -140t-73 -109.5t-86 -67.5t-107 -35.5q-101 -16 -273 -16q-2 0 -4 -1q-170 0 -342 48z" />
<glyph unicode="t" horiz-adv-x="1275" d="M-455 887h885l-16 -92zM-420 1083h883l-14 -92zM-362 98h884l-16 -92zM-328 297h885l-16 -92zM-293 494h885l-17 -93zM-258 690h885l-17 -92zM475 776l55 307h809l-55 -307h-221l-135 -776h-361l135 776h-227z" />
<glyph unicode="u" horiz-adv-x="1488" d="M-455 297h867v-41q0 -35 2 -51zM-449 494h885l-16 -93zM-414 690h885l-16 -92zM-379 887h885l-17 -92zM-377 98h809q23 -57 60 -92zM-344 1083h883l-15 -92zM473 256q0 86 23 217l108 610h344l-139 -796h102q55 0 77 13t30 65l129 718h344l-107 -610 q-49 -287 -158.5 -392.5t-373.5 -105.5q-211 0 -295 62.5t-84 218.5z" />
<glyph unicode="v" horiz-adv-x="1484" d="M-369 1083h863l6 -92zM-356 887h862l4 -92zM-344 690h858l6 -92zM-332 494h856l6 -93zM-322 297h859l4 -92zM-309 98h856l6 -92zM561 1083h379v-618h8l238 618h370l-438 -1083h-497z" />
<glyph unicode="w" horiz-adv-x="1964" d="M-354 98h805v-92zM-354 297h805v-92zM-354 494h805v-93zM-354 690h805v-92zM-354 887h805v-92zM-354 1083h805v-92zM518 0v1083h373v-585h10l229 585h312v-585h8l188 585h392l-400 -1083h-444l-31 383h-14l-158 -383h-465z" />
<glyph unicode="x" horiz-adv-x="1439" d="M-598 98h885l-58 -88zM-467 297h885l-58 -88zM-416 1083h840l29 -92zM-352 887h837l29 -92zM-338 494h885l-58 -88zM-293 690h838l28 -92zM295 0l358 547l-168 536h412l53 -241h19l145 241h393l-358 -536l170 -547h-401l-64 254h-18l-152 -254h-389z" />
<glyph unicode="y" horiz-adv-x="1300" d="M-477 1083h850l18 -92zM-436 887h850l18 -92zM-395 690h850l18 -92zM-389 98h885l-17 -92zM-354 297h884l-16 -92zM-354 494h848l20 -93zM434 1083h352l45 -393h13l170 393h358l-434 -774l-51 -309h-346l53 309z" />
<glyph unicode="z" horiz-adv-x="1363" d="M-623 98h885l-16 -92zM-559 297h885l-37 -43l-8 -47zM-412 887h875l-6 -92zM-397 1083h874l-6 -92zM-379 494h885l-78 -86zM-203 690h885l-76 -86zM309 0l39 227l492 545l-4 12h-318l21 299h843l-41 -227l-493 -551l4 -12h397l-49 -293h-891z" />
<glyph unicode="{" horiz-adv-x="1140" d="M-512 98h887q-13 -45 -13 -92zM-477 297h901l-23 -92zM-442 494h788l-6 -37l117 -31l-6 -25zM-408 690h789l-16 -92zM-373 887h910l-9 -74l-53 -12zM-338 1083h893l-8 -92zM-303 1280h901q-25 -31 -33 -92zM410 502l41 229l133 33l43 414q16 147 178 186 q84 18 154.5 23.5t191.5 5.5l-35 -301q-6 0 -164 -15l-24 -239q-10 -88 -44 -133.5t-91 -75.5l-5 -25q76 -57 76 -158q0 -35 -14 -88l-59 -198l159 -15l-71 -301q-203 0 -295 20.5t-126 58.5t-34 97q0 16 108 449z" />
<glyph unicode="|" horiz-adv-x="1069" d="M-518 98h885l-17 -92zM-483 297h884l-16 -92zM-449 494h885l-16 -93zM-414 690h885l-16 -92zM-379 887h885l-17 -92zM-344 1083h883l-15 -92zM-309 1280h882l-16 -92zM383 -162l283 1604h233l-283 -1604h-233z" />
<glyph unicode="}" horiz-adv-x="1091" d="M-430 98h725l-10 -92zM-395 297h874l-8 -80zM-360 494h868q-17 -48 -19 -91zM-326 690h897q16 -41 43 -72l-28 -18zM-291 887h858q-14 -53 -14 -92zM-256 1083h719l-10 -47l155 -14l-14 -49zM-221 1280h731l-21 -92zM328 -156l34 301l164 15l25 239q10 88 44 133.5 t91 75.5l4 25q-76 57 -76 158q0 35 15 88l59 198l-160 15l72 301q203 0 295 -20.5t126 -58.5t34 -97q0 -16 -109 -449l123 -33l-41 -229l-133 -33l-43 -414q-16 -147 -178 -186q-84 -18 -154.5 -23.5t-191.5 -5.5z" />
<glyph unicode="~" d="M47 600q172 199 287 244q53 23 116.5 22.5t175 -71t171.5 -70.5q94 0 211 135l176 -184q-185 -260 -400 -260q-72 0 -139 33.5t-119.5 66.5t-91.5 33q-78 0 -213 -135z" />
<glyph unicode="&#xa1;" horiz-adv-x="1202" d="M-451 -147h883q-10 -41 -10 -57.5t6 -35.5zM-403 51h884l-22 -90zM-356 248h884l-20 -92zM-307 444h885l-23 -92zM-264 641h889l-23 -92zM-229 838h845q0 -55 25 -93zM-195 1034h859q-27 -35 -39 -90zM483 -199q0 10 2 15l215 876h330l-96 -876q-8 -56 -84 -56h-303 q-63 0 -64 41zM678 844q0 115 54 163t180 48t169 -24t43 -81q0 -117 -63.5 -166t-180 -49t-159.5 25.5t-43 83.5z" />
<glyph unicode="&#xa2;" horiz-adv-x="1304" d="M-512 494h879l-11 -93zM-489 297h847q4 -59 17 -92zM-467 690h885q-12 -31 -29 -92zM-369 887h885q-14 -20 -53 -88zM-334 98h783q39 -35 92 -51l-9 -41zM-119 1083h881v-8q-80 -25 -137 -71zM-82 1280h883l-17 -92zM416 352q0 125 36.5 247t77.5 200t115 143.5t168 89.5 l41 197h250l-39 -178q109 -10 197 -35l-109 -297h-135q-37 0 -62.5 -5t-50 -28.5t-35.5 -67.5l-51 -231q47 -6 125 -6t176 31l-41 -297q-104 -41 -221 -43l-45 -203h-250l47 221q-195 47 -194 262z" />
<glyph unicode="&#xa3;" horiz-adv-x="1626" d="M-512 98h885l-17 -92zM-410 690h885l-16 -92zM-399 297h880l-86 -55l-4 -29zM-326 494h766l-2 -19h117l-23 -74zM-213 887h885l-19 -70h-155zM-137 1083h880q-29 -57 -38 -90zM29 1280h882q-45 -35 -92 -84zM418 0l35 205l108 71l76 261h-125l39 219h147l43 151 q115 406 488 406q197 0 356 -39l-110 -297h-191q-66 0 -104.5 -18.5t-55.5 -81.5l-32 -121h294l-57 -219h-295l-55 -209h424v-328h-985z" />
<glyph unicode="&#xa5;" horiz-adv-x="1423" d="M-369 98h863l-15 -90zM-334 297h594l-14 -90zM-299 494h592l-14 -88zM-264 690h594l-15 -80zM-229 887h675l15 -72zM-195 1083h605l12 -63zM-160 1280h533l10 -57zM305 215l39 219h242l-17 103h-207l39 219h129l-96 524h412l22 -479h13l194 479h410l-279 -524h129 l-39 -219h-206l-56 -103h244l-39 -219h-272l-37 -215h-389l37 215h-273z" />
<glyph unicode="&#xa6;" horiz-adv-x="1069" d="M-518 98h885l-17 -92zM-483 297h884l-16 -92zM-344 1083h883l-15 -92zM-309 1280h882l-16 -92zM383 -162l84 481h233l-84 -481h-233zM571 915l95 527h233l-94 -527h-234z" />
<glyph unicode="&#xa7;" horiz-adv-x="1558" d="M-512 98h885l-31 -92zM-465 494h877q-9 -62 -9 -93zM-406 297h820q12 -53 45 -92zM-403 690h882q-16 -31 -39 -90zM-391 887h872q-4 -29 -4 -92zM-350 1083h882q-27 -66 -32 -90zM-119 1280h873q-76 -29 -133 -80zM338 -186l88 249h522l13 70q-272 0 -384 61.5 t-112 194.5q0 84 28.5 171t65.5 140q-20 39 -20 128.5t31.5 175.5t79.5 136t124 79q125 47 332 47t383 -52l-88 -260h-440l-13 -69q264 0 370.5 -65.5t106.5 -192.5q0 -86 -28.5 -171t-67.5 -139q23 -47 23 -139t-36 -178t-90.5 -132t-135.5 -73q-125 -43 -342.5 -43 t-409.5 62zM793 467q0 -51 84 -51h223q16 102 16 125q0 53 -84 53h-223q-16 -102 -16 -127z" />
<glyph unicode="&#xa8;" horiz-adv-x="880" d="M-563 1319h612v-29q0 -37 6 -65zM-563 1481h647q-18 -35 -29 -95zM111 1290q0 121 42 171t129 50t116.5 -22.5t29.5 -75.5q0 -121 -43 -171t-129 -50t-115.5 22.5t-29.5 75.5zM537 1290q0 121 42 171t129 50t116.5 -22.5t29.5 -75.5q0 -121 -42 -171t-129 -50 t-116.5 22.5t-29.5 75.5z" />
<glyph unicode="&#xa9;" horiz-adv-x="1613" d="M-410 690h865v-8q0 -31 4 -84zM-410 887h883l-14 -92zM-348 1083h883q-16 -35 -35 -90zM-330 494h813q23 -57 54 -93zM-197 1280h881q-43 -37 -82 -86zM516 682q0 285 135 469q68 96 186.5 150.5t278.5 54.5q213 0 312.5 -87t99.5 -246t-32 -276.5t-99.5 -214 t-185 -151.5t-277.5 -55q-217 0 -317.5 88t-100.5 268zM614 688q0 -147 79 -207.5t257 -60.5q254 0 368 145.5t114 431.5q0 145 -79 205t-253 60q-254 0 -370 -144.5t-116 -429.5zM760 719q0 51 12 123q31 170 102.5 245.5t229.5 75.5q102 0 156 -28l-58 -160 q-55 14 -106.5 14t-69.5 -8t-22 -31l-43 -245l61 -7q78 0 152 29l-19 -178q-72 -29 -180.5 -29t-161.5 48t-53 151z" />
<glyph unicode="&#xaa;" horiz-adv-x="1296" d="M-512 494h885l-17 -93zM-463 1083h873q-4 -27 -4 -82v-10zM-428 1280h881q-10 -31 -27 -92zM-420 887h836q10 -49 30 -92zM-309 690h854q10 -8 26 -14h-20q-68 0 -101.5 -10.5t-52.5 -51.5zM418 391l28 164q6 41 30 50t75 9h661l-26 -159q-6 -41 -31 -52.5t-76 -11.5 h-661zM467 1001q0 236 126 406t349 170q190 0 410 -66l-135 -782h-158l-74 94q-107 -118 -244 -118q-274 0 -274 296zM784 944h47q68 0 91.5 16.5t27.5 43.5l60 333h-49q-55 0 -84 -13t-37 -56z" />
<glyph unicode="&#xab;" horiz-adv-x="1570" d="M-410 559h680l-16 -92zM-315 362h581l80 -92zM-258 756h678l-103 -84zM-141 164h579l82 -92zM-16 952h678l-103 -84zM307 410l35 204l440 359l140 -105l-256 -356l131 -356l-176 -105zM782 410l45 204l443 359l137 -105l-256 -356l131 -356l-174 -105z" />
<glyph unicode="&#xac;" d="M147 492l52 294h886l-102 -581h-262l51 287h-625z" />
<glyph unicode="&#xad;" horiz-adv-x="716" d="M0 494h680l-16 -93zM35 690h680l-17 -92z" />
<glyph unicode="&#xae;" horiz-adv-x="1613" d="M-410 690h865v-8q0 -31 4 -84zM-410 887h883l-14 -92zM-348 1083h883q-16 -35 -35 -90zM-330 494h813q23 -57 54 -93zM-197 1280h881q-43 -37 -82 -86zM516 682q0 285 135 469q68 96 186.5 150.5t278.5 54.5q213 0 312.5 -87t99.5 -246t-32 -276.5t-99.5 -214 t-185 -151.5t-277.5 -55q-217 0 -317.5 88t-100.5 268zM614 688q0 -147 79 -207.5t257 -60.5q254 0 368 145.5t114 431.5q0 145 -79 205t-253 60q-254 0 -370 -144.5t-116 -429.5zM733 535l109 614h293q172 0 172 -152q0 -74 -29 -149.5t-94 -110.5l65 -202h-219l-45 178 h-22l-31 -178h-199zM991 877h33q33 0 45 5t18.5 36.5t6.5 39.5q0 20 -52 21h-32z" />
<glyph unicode="&#xaf;" horiz-adv-x="817" d="M-676 1315h733q-2 -8 -2 -34t6 -50zM-668 1481h752l-14 -80zM117 1281q0 32 8 71l22 129h482q51 0 69.5 -12.5t18.5 -36t-8 -80.5l-23 -131h-479q-51 0 -70.5 14t-19.5 46z" />
<glyph unicode="&#xb0;" horiz-adv-x="1183" d="M-512 1083h874q-6 -47 -6 -92zM-469 887h834q10 -55 32 -92zM-459 1280h883q-27 -49 -37 -90zM418 977q0 203 103.5 334t309.5 131q147 0 215 -60.5t68 -183.5q0 -203 -102.5 -335t-306.5 -132q-150 0 -218.5 60.5t-68.5 185.5zM618 944h123q43 0 64.5 3t43 21.5 t28.5 55.5l34 205h-110q-49 0 -72.5 -3t-45 -20.5t-28.5 -54.5z" />
<glyph unicode="&#xb1;" d="M63 0l52 295h886l-51 -295h-887zM186 698l52 295h303l57 318h279l-58 -318h305l-51 -295h-305l-57 -319h-279l57 319h-303z" />
<glyph unicode="&#xb2;" horiz-adv-x="819" d="M25 702l28 168q18 94 46 127t40.5 49.5t52 38t54 29.5t72 32.5t75.5 33.5l82 37l12 71q-43 4 -110.5 4t-204.5 -30l2 221q139 35 273.5 35t187.5 -10.5t93 -52.5t40 -120q0 -18 -8 -80q-20 -121 -90 -170t-301 -127l-9 -40h328l-37 -216h-626z" />
<glyph unicode="&#xb3;" horiz-adv-x="819" d="M27 719l75 223q127 -33 203 -33t111 4l16 95l-196 22l24 141l205 25l16 90q-45 6 -123.5 6t-185.5 -30l2 221q139 35 288.5 35t218.5 -31t69 -125q0 -158 -119 -236q72 -43 71 -131q0 -16 -8 -69.5t-36.5 -102.5t-62.5 -75.5t-87 -40.5q-82 -23 -216 -23t-265 35z" />
<glyph unicode="&#xb4;" horiz-adv-x="878" d="M-827 1315h845l-108 -80zM-600 1481h846l-109 -80zM82 1282l387 285q12 8 26.5 8t32.5 -23l129 -151q18 -20 18.5 -33.5t-4.5 -21t-96 -84.5q-20 -18 -53 -25l-356 -72z" />
<glyph unicode="&#xb5;" horiz-adv-x="1605" d="M-518 98h885l-17 -92zM-483 297h884l-16 -92zM-449 494h885l-16 -93zM-414 690h885l-16 -92zM-379 887h885l-17 -92zM-344 1083h883l-15 -92zM356 -338l254 1421h389l-145 -815h59q70 0 105 15.5t45 70.5l131 729l393 31l-196 -1114h-195l-70 88q-88 -88 -254 -88h-139 l-125 -338h-252z" />
<glyph unicode="&#xb6;" horiz-adv-x="1568" d="M-485 887h878q-8 -61 -10 -92zM-471 690h852q4 -53 14 -92zM-424 1083h883q-25 -45 -39 -90zM-324 98h885l-16 -92zM-289 297h885l-16 -92zM-254 494h700q53 -63 156 -93zM-217 1280h876q-66 -35 -112 -82zM322 -338l18 105l414 120q96 27 106 88l174 977h-57l-166 -952 l-211 -51l86 497q-244 37 -244 289q0 223 111 375q57 80 158.5 125t238.5 45h621l-60 -328h-98l-168 -952q-59 -338 -350 -338h-573z" />
<glyph unicode="&#xb7;" horiz-adv-x="665" d="M-326 692h473q-12 -41 -18 -92zM-315 494h436q4 -60 22 -93zM182 498.5q0 56.5 8 99.5q21 121 73 170t166 49t154 -30.5t40 -88t-9 -100.5q-20 -121 -72.5 -168t-166 -47t-153.5 29.5t-40 86z" />
<glyph unicode="&#xb8;" horiz-adv-x="960" d="M-207 -266h375l-18 -64zM-180 -119h391l-18 -63zM223 -299l53 180h64q41 0 54.5 11.5t21.5 54.5l16 96h119q117 -49 117 -174q0 -84 -65.5 -145.5t-175.5 -61.5t-204 39z" />
<glyph unicode="&#xb9;" horiz-adv-x="819" d="M76 702l37 216h166l53 303l-189 -11l41 224l267 65h202l-102 -581h133l-37 -216h-571z" />
<glyph unicode="&#xba;" horiz-adv-x="1296" d="M-512 494h885l-17 -93zM-444 1083h870q-2 -26 -2 -79v-13zM-416 1280h883q-16 -55 -25 -92zM-395 887h831q14 -57 35 -92zM-264 690h850q12 -8 32 -14h-67q-45 0 -68 -2q-61 -6 -84 -56zM418 391l28 164q6 41 30 50t75 9h661l-26 -159q-6 -41 -31 -52.5t-76 -11.5h-661z M485 1004q0 248 126 410.5t378 162.5q182 0 267 -75t85 -226q0 -246 -127 -408.5t-378 -162.5q-182 0 -266.5 74.5t-84.5 224.5zM801 944h49q55 0 84 13.5t35 56.5l57 323h-49q-55 0 -84 -13t-35 -56z" />
<glyph unicode="&#xbb;" horiz-adv-x="1552" d="M-307 559h850l14 -37l-41 -55zM-213 362h653l-67 -92zM-156 756h625l33 -84zM-39 164h336l-14 -21l94 -71zM86 952h424l-94 -55l10 -29zM367 156l258 356l-133 356l176 105l313 -359l-35 -204l-440 -359zM852 156l258 356l-133 356l176 105l313 -359l-34 -204l-441 -359z " />
<glyph unicode="&#xbc;" horiz-adv-x="1988" d="M129 465l37 215h166l53 303l-188 -10l41 223l266 66h203l-103 -582h133l-37 -215h-571zM668 -82l551 1393q10 20 18 28q23 23 70 23h104l-551 -1393q-10 -20 -18 -28q-23 -23 -70 -23h-104zM1153 123l31 172l270 502h436l-82 -469h76l-37 -205h-75l-21 -123h-260l20 123 h-358zM1425 328h123l49 276h-34z" />
<glyph unicode="&#xbd;" horiz-adv-x="1988" d="M88 465l37 215h166l53 303l-188 -10l41 223l266 66h203l-103 -582h133l-37 -215h-571zM606 -82l551 1393q10 20 19 28q23 23 69 23h105l-551 -1393q-10 -20 -19 -28q-22 -23 -69 -23h-105zM1165 0l29 168q18 94 46 127t40 49t52 37.5t54.5 30t72 33t75.5 32.5l82 37 l12 72q-43 4 -110.5 4t-204.5 -31l2 221q139 35 273 35t187.5 -10t93.5 -52t40 -120q0 -18 -8 -80q-20 -121 -90 -170t-302 -127l-8 -41h328l-37 -215h-627z" />
<glyph unicode="&#xbe;" horiz-adv-x="1988" d="M59 481l76 224q127 -33 203 -33t111 4l16 94l-197 23l25 141l205 24l16 91q-45 6 -124 6t-185 -31l2 221q139 35 288.5 35t218 -30.5t68.5 -125.5q0 -158 -118 -235q72 -43 71 -131q0 -16 -8 -69.5t-36.5 -102.5t-62.5 -76t-87 -41q-82 -23 -216.5 -23t-265.5 35z M629 -82l551 1393q10 20 18 28q23 23 70 23h104l-551 -1393q-10 -20 -18 -28q-23 -23 -70 -23h-104zM1153 123l31 172l270 502h436l-82 -469h76l-37 -205h-75l-21 -123h-260l20 123h-358zM1425 328h123l49 276h-34z" />
<glyph unicode="&#xbf;" horiz-adv-x="1249" d="M-651 100h880l-12 -92zM-555 297h885q-39 -41 -62 -88zM-244 494h885l-6 -23q-88 -31 -139 -57zM-184 690h882l-26 -92zM-184 887h864v-43q0 -35 4 -49zM-88 1083h881q-63 -31 -86 -86zM279 -31q0 174 93 279.5t312 173.5l80 260h332l-41 -385q-4 -37 -31 -57.5 t-115 -51.5l-221 -75l-12 -70q49 -4 114.5 -4t175 13.5t152.5 27.5l-4 -293q-223 -57 -416 -57q-188 0 -272 30.5t-115.5 80.5t-31.5 128zM741 844q0 115 55.5 163t180.5 48t168 -24t43 -81q0 -115 -62.5 -165t-180.5 -50t-161 25.5t-43 83.5z" />
<glyph unicode="&#xc0;" horiz-adv-x="1742" d="M-512 98h879l-39 -90zM-428 297h879l-39 -90zM-344 494h876l-36 -91zM-260 690h876l-38 -90zM-176 887h874l-36 -90zM-92 1083h872l-37 -88zM-8 1280h872l-37 -88zM-8 1280l835 -88l37 88h-872zM123 1706h868q-6 -8 -20 -23q-27 -30 -39 -57zM184 1540h752q12 -19 84 -80 zM393 0l539 1280h602l90 -1280h-412l-8 203h-321l-80 -203h-410zM985 1589.5q0 14.5 19 36.5l129 152q18 23 32.5 22.5t26.5 -8.5l387 -285l-84 -116l-356 71q-33 6 -54 25l-92 80q-8 8 -8 22.5zM1010 528h164v359h-21z" />
<glyph unicode="&#xc1;" horiz-adv-x="1742" d="M-512 98h879l-39 -90zM-428 297h879l-39 -90zM-344 494h876l-36 -91zM-260 690h876l-38 -90zM-176 887h874l-36 -90zM-92 1083h872l-37 -88zM-8 1280l835 -88l37 88h-872zM-8 1280h872l-37 -88zM98 1540h846l-108 -80zM326 1706h845l-108 -80zM393 0l539 1280h602 l90 -1280h-412l-8 203h-321l-80 -203h-410zM1008 1507l387 285q12 8 26.5 8t32.5 -22l129 -152q18 -20 18.5 -33.5t-5 -20.5t-95.5 -85q-20 -18 -53 -25l-356 -71zM1010 528h164v359h-21z" />
<glyph unicode="&#xc2;" horiz-adv-x="1742" d="M-512 98h879l-39 -90zM-428 297h879l-39 -90zM-344 494h876l-36 -91zM-260 690h876l-38 -90zM-176 887h874l-36 -90zM-92 1083h872l-37 -88zM-8 1280l835 -88l37 88h-872zM-8 1280h872l-37 -88zM180 1540h750l-74 -80zM346 1706h733l-71 -80zM393 0l539 1280h602 l90 -1280h-412l-8 203h-321l-80 -203h-410zM965 1487l270 297q14 18 37 18h92q16 0 27 -18l170 -297l-136 -101l-159 130l-203 -130zM1010 528h164v359h-21z" />
<glyph unicode="&#xc3;" horiz-adv-x="1742" d="M-512 98h879l-39 -90zM-428 297h879l-39 -90zM-344 494h876l-36 -91zM-260 690h876l-38 -90zM-176 887h874l-36 -90zM-92 1083h872l-37 -88zM-8 1280l835 -88l37 88h-872zM-8 1280h872l-37 -88zM227 1544h602l39 -94zM227 1706h750l-148 -94zM393 0l539 1280h602 l90 -1280h-412l-8 203h-321l-80 -203h-410zM883 1575q264 166 293.5 177t55 11t42 -4t33 -15t26.5 -20q17 -10 60 -53l176 82l67 -166q-264 -166 -293.5 -177t-55 -11t-42 4t-33 15.5t-26.5 19.5q-16 10 -60 53l-174 -82zM1010 528h164v359h-21z" />
<glyph unicode="&#xc4;" horiz-adv-x="1742" d="M-512 98h879l-39 -90zM-428 297h879l-39 -90zM-344 494h876l-36 -91zM-260 690h876l-38 -90zM-176 887h874l-36 -90zM-92 1083h872l-37 -88zM-8 1280l835 -88l37 88h-872zM-8 1280h872l-37 -88zM203 1544h612v-28q0 -37 6 -66zM203 1706h647q-18 -35 -29 -94zM393 0 l539 1280h602l90 -1280h-412l-8 203h-321l-80 -203h-410zM877 1516q0 120 42 170.5t129 50.5t116.5 -22.5t29.5 -76.5q0 -121 -43 -171t-129 -50t-115.5 22.5t-29.5 76.5zM1010 528h164v359h-21zM1303 1516q0 120 41.5 170.5t129 50.5t117 -22.5t29.5 -76.5q0 -121 -42 -171 t-129 -50t-116.5 22.5t-29.5 76.5z" />
<glyph unicode="&#xc5;" horiz-adv-x="1742" d="M-512 98h879l-39 -90zM-428 297h879l-39 -90zM-344 494h876l-36 -91zM-260 690h876l-38 -90zM-176 887h874l-36 -90zM-92 1083h872l-37 -88zM-8 1280h872l-37 -88zM-8 1280l835 -88l37 88h-872zM381 1706h631q-17 -53 -21 -94zM385 1544h600v-14q0 -43 10 -80zM393 0 l539 1280h602l90 -1280h-412l-8 203h-321l-80 -203h-410zM1010 528h164v359h-21zM1047 1530q0 152 71.5 230.5t202.5 78.5q190 0 190 -164q0 -152 -71.5 -230.5t-202.5 -78.5q-190 0 -190 164zM1180 1507h82q55 0 70.5 14.5t19.5 39.5l24 137h-76q-59 0 -75.5 -14.5 t-20.5 -36.5z" />
<glyph unicode="&#xc6;" horiz-adv-x="2068" d="M-512 98h879l-39 -90zM-428 297h879l-39 -90zM-344 494h876l-36 -91zM-260 690h876l-38 -90zM-176 887h874l-36 -90zM-92 1083h872l-37 -88zM-8 1280h872l-37 -88zM393 0l539 1280h1149l-107 -328h-418l13 -172h346l-53 -297h-273l13 -155h409l-57 -328h-742l-8 203h-321 l-80 -203h-410zM1010 528h164v359h-21z" />
<glyph unicode="&#xc7;" horiz-adv-x="1398" d="M-442 494h813q-6 -47 -6 -86zM-420 690h819l-6 -41q-4 -16 -8 -45zM-416 297h783q8 -57 14 -86zM-371 887h820l-25 -84zM-274 1083h806q-29 -53 -40 -82zM-219 98h647q27 -47 61 -75zM8 1280h719q-59 -37 -92 -68zM119 -266h375l-19 -64zM145 -119h392l-19 -63zM426 379 q0 -209 111.5 -309.5t369.5 -100.5q201 0 332 54l33 344q-137 -49 -303 -50q-78 0 -152 17l94 536q10 61 55.5 82t151 21t225.5 -29l115 313q-45 23 -142 38.5t-173 15.5q-326 0 -476.5 -160t-211.5 -512q-29 -172 -29 -260zM549 -299l53 180h64q41 0 54 11.5t21 54.5l17 96 h119q116 -49 116 -174q0 -84 -65.5 -145.5t-175 -61.5t-203.5 39z" />
<glyph unicode="&#xc8;" horiz-adv-x="1486" d="M-512 98h885l-17 -92zM-477 297h885l-17 -92zM-442 494h884l-16 -93zM-408 690h885l-16 -92zM-373 887h885l-16 -92zM-338 1083h883l-15 -92zM-303 1280h883l-17 -92zM-86 1706h868q-6 -8 -20 -23q-27 -30 -39 -57zM-25 1540h752q12 -19 84 -80zM418 0l225 1280h856 l-106 -328h-420l-29 -172h389l-53 -297h-389l-27 -155h477l-57 -328h-866zM776 1589.5q0 14.5 19 36.5l129 152q18 23 32.5 22.5t26.5 -8.5l387 -285l-84 -116l-356 71q-33 6 -53 25l-93 80q-8 8 -8 22.5z" />
<glyph unicode="&#xc9;" horiz-adv-x="1486" d="M-512 98h885l-17 -92zM-477 297h885l-17 -92zM-442 494h884l-16 -93zM-408 690h885l-16 -92zM-373 887h885l-16 -92zM-338 1083h883l-15 -92zM-303 1280h883l-17 -92zM-74 1540h846l-108 -80zM154 1706h845l-108 -80zM418 0l225 1280h856l-106 -328h-420l-29 -172h389 l-53 -297h-389l-27 -155h477l-57 -328h-866zM836 1507l387 285q12 8 26.5 8t32.5 -22l129 -152q18 -20 18.5 -33.5t-5 -20.5t-95.5 -85q-20 -18 -53 -25l-356 -71z" />
<glyph unicode="&#xca;" horiz-adv-x="1486" d="M-512 98h885l-17 -92zM-477 297h885l-17 -92zM-442 494h884l-16 -93zM-408 690h885l-16 -92zM-373 887h885l-16 -92zM-338 1083h883l-15 -92zM-303 1280h883l-17 -92zM10 1540h750l-74 -80zM176 1706h733l-71 -80zM418 0l225 1280h856l-106 -328h-420l-29 -172h389 l-53 -297h-389l-27 -155h477l-57 -328h-866zM795 1487l270 297q17 18 37 18h92q16 0 27 -18l170 -297l-136 -101l-159 130l-203 -130z" />
<glyph unicode="&#xcb;" horiz-adv-x="1486" d="M-512 98h885l-17 -92zM-477 297h885l-17 -92zM-442 494h884l-16 -93zM-408 690h885l-16 -92zM-373 887h885l-16 -92zM-338 1083h883l-15 -92zM-303 1280h883l-17 -92zM76 1544h612v-28q0 -37 6 -66zM76 1706h647q-18 -35 -29 -94zM418 0l225 1280h856l-106 -328h-420 l-29 -172h389l-53 -297h-389l-27 -155h477l-57 -328h-866zM750 1516q0 120 42 170.5t129 50.5t116.5 -22.5t29.5 -76.5q0 -121 -43 -171t-129 -50t-115.5 22.5t-29.5 76.5zM1176 1516q0 120 42 170.5t129 50.5t116.5 -22.5t29.5 -76.5q0 -121 -42 -171t-129 -50t-116.5 22.5 t-29.5 76.5z" />
<glyph unicode="&#xcc;" horiz-adv-x="1032" d="M-512 98h885l-17 -92zM-477 297h885l-17 -92zM-442 494h884l-16 -93zM-408 690h885l-16 -92zM-373 887h885l-16 -92zM-338 1083h883l-15 -92zM-313 1706h868q-6 -8 -20 -23q-27 -30 -39 -57zM-303 1280h883l-17 -92zM-252 1540h752q12 -19 84 -80zM418 0l225 1280h389 l-225 -1280h-389zM549 1589.5q0 14.5 18 36.5l129 152q18 23 32.5 22.5t27.5 -8.5l387 -285l-84 -116l-357 71q-33 6 -53 25l-92 80q-8 8 -8 22.5z" />
<glyph unicode="&#xcd;" horiz-adv-x="1032" d="M-512 98h885l-17 -92zM-477 297h885l-17 -92zM-442 494h884l-16 -93zM-408 690h885l-16 -92zM-373 887h885l-16 -92zM-338 1083h883l-15 -92zM-303 1280h883l-17 -92zM-301 1540h846l-109 -80zM-74 1706h846l-108 -80zM418 0l225 1280h389l-225 -1280h-389zM608 1507 l387 285q12 8 26.5 8t33.5 -22l129 -152q18 -20 18 -33.5t-5 -20.5t-95 -85q-20 -18 -53 -25l-357 -71z" />
<glyph unicode="&#xce;" horiz-adv-x="1032" d="M-512 98h885l-17 -92zM-477 297h885l-17 -92zM-442 494h884l-16 -93zM-408 690h885l-16 -92zM-373 887h885l-16 -92zM-338 1083h883l-15 -92zM-303 1280h883l-17 -92zM-217 1540h749l-73 -80zM-51 1706h733l-72 -80zM418 0l225 1280h389l-225 -1280h-389zM567 1487 l271 297q13 18 36 18h93q16 0 26 -18l170 -297l-135 -101l-160 130l-202 -130z" />
<glyph unicode="&#xcf;" horiz-adv-x="1032" d="M-512 98h885l-17 -92zM-477 297h885l-17 -92zM-442 494h884l-16 -93zM-408 690h885l-16 -92zM-373 887h885l-16 -92zM-338 1083h883l-15 -92zM-303 1280h883l-17 -92zM-152 1544h613v-28q0 -37 6 -66zM-152 1706h648q-18 -35 -29 -94zM418 0l225 1280h389l-225 -1280 h-389zM522 1516q0 120 42 170.5t129 50.5t117 -22.5t30 -76.5q0 -121 -43 -171t-129 -50t-116 22.5t-30 76.5zM948 1516q0 120 42 170.5t129 50.5t117 -22.5t30 -76.5q0 -121 -42 -171t-129 -50t-117 22.5t-30 76.5z" />
<glyph unicode="&#xd0;" horiz-adv-x="1722" d="M-512 98h885l-17 -92zM-477 297h885l-17 -92zM-442 494h884l-16 -93zM-408 690h885l-16 -92zM-373 887h885l-16 -92zM-338 1083h883l-15 -92zM-303 1280h883l-17 -92zM418 0l225 1280h545q264 0 375.5 -93t111.5 -302q0 -106 -24 -246q-61 -344 -210 -491.5t-478 -147.5 h-545zM705 522h260q49 0 74.5 12.5t31.5 51.5l29 157h-357zM864 328h162q80 0 119 19.5t51 88.5l72 408q2 12 2 33q0 47 -32.5 61t-102.5 14h-162z" />
<glyph unicode="&#xd1;" horiz-adv-x="1742" d="M-512 98h885l-17 -92zM-477 297h885l-17 -92zM-442 494h884l-16 -93zM-408 690h885l-16 -92zM-373 887h885l-16 -92zM-338 1083h883l-15 -92zM-303 1280h883l-17 -92zM166 1544h602l39 -94zM166 1706h749l-147 -94zM418 0l225 1280h367l209 -455q6 -14 6 -39.5t-4 -58.5 h16l98 553h389l-225 -1280h-366l-209 455q-8 14 -8.5 39.5t4.5 58.5h-17l-96 -553h-389zM821 1575q264 166 294 177t55.5 11t42 -4t33 -15t26.5 -20q16 -10 59 -53l176 82l68 -166q-264 -166 -294 -177t-55.5 -11t-42 4t-32.5 15.5t-27 19.5q-16 10 -59 53l-174 -82z" />
<glyph unicode="&#xd2;" horiz-adv-x="1669" d="M-442 494h813q-6 -47 -6 -86zM-420 690h819l-6 -41q-4 -16 -8 -45zM-416 297h783q8 -57 14 -86zM-371 887h820l-25 -84zM-274 1083h806q-29 -53 -40 -82zM-219 98h647q27 -47 61 -75zM4 1706h868q-6 -8 -20 -23q-27 -30 -39 -57zM8 1280h719q-59 -37 -92 -68zM66 1540 h751q12 -19 84 -80zM424 383q0 100 28.5 265t75.5 285t127 208q154 170 486 170q260 0 370.5 -101.5t110.5 -312.5t-66.5 -441.5t-211 -358.5t-422 -128t-388 101.5t-110.5 312.5zM811 319h162q80 0 118.5 19.5t51.5 89.5l94 533h-164q-78 0 -116.5 -19.5t-51.5 -89.5z M866 1589.5q0 14.5 19 36.5l129 152q18 23 32.5 22.5t26.5 -8.5l387 -285l-84 -116l-356 71q-33 6 -53 25l-93 80q-8 8 -8 22.5z" />
<glyph unicode="&#xd3;" horiz-adv-x="1669" d="M-442 494h813q-6 -47 -6 -86zM-420 690h819l-6 -41q-4 -16 -8 -45zM-416 297h783q8 -57 14 -86zM-371 887h820l-25 -84zM-274 1083h806q-29 -53 -40 -82zM-219 98h647q27 -47 61 -75zM8 1280h719q-59 -37 -92 -68zM18 1540h846l-108 -80zM246 1706h846l-109 -80zM424 383 q0 100 28.5 265t75.5 285t127 208q154 170 486 170q260 0 370.5 -101.5t110.5 -312.5t-66.5 -441.5t-211 -358.5t-422 -128t-388 101.5t-110.5 312.5zM811 319h162q80 0 118.5 19.5t51.5 89.5l94 533h-164q-78 0 -116.5 -19.5t-51.5 -89.5zM928 1507l387 285q12 8 26.5 8 t32.5 -22l129 -152q18 -20 18.5 -33.5t-5 -20.5t-95.5 -85q-20 -18 -53 -25l-356 -71z" />
<glyph unicode="&#xd4;" horiz-adv-x="1669" d="M-442 494h813q-6 -47 -6 -86zM-420 690h819l-6 -41q-4 -16 -8 -45zM-416 297h783q8 -57 14 -86zM-371 887h820l-25 -84zM-274 1083h806q-29 -53 -40 -82zM-219 98h647q27 -47 61 -75zM8 1280h719q-59 -37 -92 -68zM82 1540h749l-73 -80zM248 1706h733l-72 -80zM424 383 q0 100 28.5 265t75.5 285t127 208q154 170 486 170q260 0 370.5 -101.5t110.5 -312.5t-66.5 -441.5t-211 -358.5t-422 -128t-388 101.5t-110.5 312.5zM811 319h162q80 0 118.5 19.5t51.5 89.5l94 533h-164q-78 0 -116.5 -19.5t-51.5 -89.5zM866 1487l271 297q14 18 37 18h92 q16 0 26 -18l170 -297l-135 -101l-160 130l-202 -130z" />
<glyph unicode="&#xd5;" horiz-adv-x="1669" d="M-442 494h813q-6 -47 -6 -86zM-420 690h819l-6 -41q-4 -16 -8 -45zM-416 297h783q8 -57 14 -86zM-371 887h820l-25 -84zM-274 1083h806q-29 -53 -40 -82zM-219 98h647q27 -47 61 -75zM8 1280h719q-59 -37 -92 -68zM160 1544h602l39 -94zM160 1706h749l-147 -94zM424 383 q0 100 28.5 265t75.5 285t127 208q154 170 486 170q260 0 370.5 -101.5t110.5 -312.5t-66.5 -441.5t-211 -358.5t-422 -128t-388 101.5t-110.5 312.5zM811 319h162q80 0 118.5 19.5t51.5 89.5l94 533h-164q-78 0 -116.5 -19.5t-51.5 -89.5zM815 1575q264 166 294 177 t55.5 11t42 -4t32.5 -15t27 -20q16 -10 59 -53l176 82l68 -166q-264 -166 -294 -177t-55.5 -11t-42 4t-33 15.5t-26.5 19.5q-16 10 -59 53l-174 -82z" />
<glyph unicode="&#xd6;" horiz-adv-x="1669" d="M-442 494h813q-6 -47 -6 -86zM-420 690h819l-6 -41q-4 -16 -8 -45zM-416 297h783q8 -57 14 -86zM-371 887h820l-25 -84zM-274 1083h806q-29 -53 -40 -82zM-219 98h647q27 -47 61 -75zM8 1280h719q-59 -37 -92 -68zM166 1544h612v-28q0 -37 6 -66zM166 1706h647 q-18 -35 -29 -94zM424 383q0 100 28.5 265t75.5 285t127 208q154 170 486 170q260 0 370.5 -101.5t110.5 -312.5t-66.5 -441.5t-211 -358.5t-422 -128t-388 101.5t-110.5 312.5zM811 319h162q80 0 118.5 19.5t51.5 89.5l94 533h-164q-78 0 -116.5 -19.5t-51.5 -89.5z M840 1516q0 120 42 170.5t129 50.5t116.5 -22.5t29.5 -76.5q0 -121 -43 -171t-129 -50t-115.5 22.5t-29.5 76.5zM1266 1516q0 120 42 170.5t129 50.5t116.5 -22.5t29.5 -76.5q0 -121 -42 -171t-129 -50t-116.5 22.5t-29.5 76.5z" />
<glyph unicode="&#xd7;" d="M102 362l312 277l-215 276l235 209l213 -276l311 276l162 -209l-309 -276l213 -277l-236 -208l-213 276l-311 -276z" />
<glyph unicode="&#xd8;" horiz-adv-x="1669" d="M-442 494h813q-6 -47 -6 -86zM-420 690h819l-6 -41q-4 -16 -8 -45zM-416 297h783q8 -57 14 -86zM-371 887h820l-25 -84zM-274 1083h806q-29 -53 -40 -82zM-219 98h647q27 -47 61 -75zM8 1280h719q-59 -37 -92 -68zM424 383q0 100 28.5 265t75.5 285t127 208 q154 170 486 170q260 0 370.5 -101.5t110.5 -312.5t-66.5 -441.5t-211 -358.5t-422 -128t-388 101.5t-110.5 312.5zM514 -162l913 1604h103l-909 -1604h-107zM811 319h162q80 0 118.5 19.5t51.5 89.5l94 533h-164q-78 0 -116.5 -19.5t-51.5 -89.5z" />
<glyph unicode="&#xd9;" horiz-adv-x="1667" d="M-442 494h876q-8 -68 -10 -93zM-440 297h860q0 -49 6 -92zM-414 690h883l-16 -92zM-381 887h885l-17 -92zM-346 98h801q27 -57 65 -92zM-344 1083h883l-17 -92zM-309 1280h882l-16 -92zM4 1706h868q-6 -8 -20 -23q-27 -30 -39 -57zM66 1540h751q12 -19 84 -80zM481 301 q0 100 29 260l127 719h389l-170 -961h139q72 0 102.5 19.5t43.5 89.5l151 852h389l-127 -719q-31 -174 -70.5 -280.5t-111.5 -180t-177 -102.5t-267 -29q-248 0 -347.5 75t-99.5 257zM866 1589.5q0 14.5 19 36.5l129 152q18 23 32.5 22.5t26.5 -8.5l387 -285l-84 -116 l-356 71q-33 6 -53 25l-93 80q-8 8 -8 22.5z" />
<glyph unicode="&#xda;" horiz-adv-x="1667" d="M-442 494h876q-8 -68 -10 -93zM-440 297h860q0 -49 6 -92zM-414 690h883l-16 -92zM-381 887h885l-17 -92zM-346 98h801q27 -57 65 -92zM-344 1083h883l-17 -92zM-309 1280h882l-16 -92zM16 1540h846l-108 -80zM244 1706h846l-109 -80zM481 301q0 100 29 260l127 719h389 l-170 -961h139q72 0 102.5 19.5t43.5 89.5l151 852h389l-127 -719q-31 -174 -70.5 -280.5t-111.5 -180t-177 -102.5t-267 -29q-248 0 -347.5 75t-99.5 257zM926 1507l387 285q12 8 26.5 8t32.5 -22l129 -152q18 -20 18.5 -33.5t-5 -20.5t-95.5 -85q-20 -18 -53 -25l-356 -71 z" />
<glyph unicode="&#xdb;" horiz-adv-x="1667" d="M-442 494h876q-8 -68 -10 -93zM-440 297h860q0 -49 6 -92zM-414 690h883l-16 -92zM-381 887h885l-17 -92zM-346 98h801q27 -57 65 -92zM-344 1083h883l-17 -92zM-309 1280h882l-16 -92zM100 1540h750l-74 -80zM266 1706h733l-71 -80zM481 301q0 100 29 260l127 719h389 l-170 -961h139q72 0 102.5 19.5t43.5 89.5l151 852h389l-127 -719q-31 -174 -70.5 -280.5t-111.5 -180t-177 -102.5t-267 -29q-248 0 -347.5 75t-99.5 257zM885 1487l270 297q17 18 37 18h92q16 0 27 -18l170 -297l-135 -101l-160 130l-203 -130z" />
<glyph unicode="&#xdc;" horiz-adv-x="1667" d="M-442 494h876q-8 -68 -10 -93zM-440 297h860q0 -49 6 -92zM-414 690h883l-16 -92zM-381 887h885l-17 -92zM-346 98h801q27 -57 65 -92zM-344 1083h883l-17 -92zM-309 1280h882l-16 -92zM166 1544h612v-28q0 -37 6 -66zM166 1706h647q-18 -35 -29 -94zM481 301 q0 100 29 260l127 719h389l-170 -961h139q72 0 102.5 19.5t43.5 89.5l151 852h389l-127 -719q-31 -174 -70.5 -280.5t-111.5 -180t-177 -102.5t-267 -29q-248 0 -347.5 75t-99.5 257zM840 1516q0 120 42 170.5t129 50.5t116.5 -22.5t29.5 -76.5q0 -121 -43 -171t-129 -50 t-115.5 22.5t-29.5 76.5zM1266 1516q0 120 42 170.5t129 50.5t116.5 -22.5t29.5 -76.5q0 -121 -42 -171t-129 -50t-116.5 22.5t-29.5 76.5z" />
<glyph unicode="&#xdd;" horiz-adv-x="1339" d="M-494 1280h848l19 -92zM-457 1083h848l19 -92zM-418 887h848l19 -92zM-389 98h883l-17 -92zM-381 690h850l18 -92zM-354 297h880l-14 -92zM-342 494h850l18 -93zM-225 1540h846l-109 -80zM2 1706h846l-109 -80zM416 1280h430l26 -451h15l188 451h430l-516 -932l-59 -348 h-389l59 348zM684 1507l387 285q12 8 26.5 8t32.5 -22l130 -152q18 -20 18 -33.5t-5 -20.5t-95 -85q-20 -18 -54 -25l-356 -71z" />
<glyph unicode="&#xde;" horiz-adv-x="1574" d="M-512 98h885l-17 -92zM-477 297h885l-17 -92zM-442 494h884l-16 -93zM-408 690h883l-16 -92zM-373 887h883l-16 -92zM-338 1083h883l-17 -92zM-303 1280h883l-17 -92zM418 0l225 1280h389l-28 -154h225q350 0 350 -325q0 -156 -44 -278t-95 -194.5t-143.5 -122.5 t-209.5 -50h-253l-27 -156h-389zM891 483h90q70 0 105.5 15.5t46.5 70.5l24 144q2 8 2 22q0 39 -30.5 51.5t-92.5 12.5h-90z" />
<glyph unicode="&#xdf;" horiz-adv-x="1583" d="M-512 98h885l-17 -92zM-477 297h885l-17 -92zM-471 887h885l-17 -92zM-442 494h884l-16 -93zM-434 1083h883l-15 -92zM-408 690h885l-16 -92zM-256 1280h883q-29 -45 -43 -90zM418 0l133 758h-96l47 266h96l35 123q45 156 194 199q127 36 340 36q379 0 379 -256 q0 -207 -237 -483q285 0 284 -237q0 -199 -118.5 -318t-326.5 -119t-271 29l90 291q80 -23 123 -23t73 8l13 66q-113 0 -155 35t-42 125t83 264t83 233q0 66 -82 66q-31 0 -72 -8l-184 -1055h-389z" />
<glyph unicode="&#xe0;" horiz-adv-x="1552" d="M-512 98h879l-39 -90zM-428 297h879l-39 -90zM-344 494h876l-36 -91zM-260 690h876l-38 -90zM-176 887h874l-36 -90zM-92 1083h872l-37 -88zM-74 1481h869q-6 -8 -21 -23q-27 -30 -39 -57zM-12 1315h751q12 -19 84 -80zM393 0l455 1083h508l80 -1083h-359l-8 166h-258 l-63 -166h-355zM788.5 1363.5q-0.5 14.5 18.5 37.5l129 151q18 23 32.5 23t26.5 -8l387 -285l-84 -117l-356 72q-33 6 -53 25l-92 79q-8 8 -8.5 22.5zM920 459h149v311h-29z" />
<glyph unicode="&#xe1;" horiz-adv-x="1552" d="M-512 98h879l-39 -90zM-428 297h879l-39 -90zM-344 494h876l-36 -91zM-260 690h876l-38 -90zM-176 887h874l-36 -90zM-92 1083h872l-37 -88zM20 1315h846l-108 -80zM248 1481h846l-109 -80zM393 0l455 1083h508l80 -1083h-359l-8 166h-258l-63 -166h-355zM920 459h149 v311h-29zM930 1282l387 285q12 8 26.5 8t32.5 -23l129 -151q18 -20 18.5 -33.5t-5 -21t-95.5 -84.5q-20 -18 -53 -25l-356 -72z" />
<glyph unicode="&#xe2;" horiz-adv-x="1552" d="M-512 98h879l-39 -90zM-428 297h879l-39 -90zM-344 494h876l-36 -91zM-260 690h876l-38 -90zM-176 887h874l-36 -90zM-92 1083h872l-37 -88zM84 1315h750l-74 -80zM250 1481h733l-72 -80zM393 0l455 1083h508l80 -1083h-359l-8 166h-258l-63 -166h-355zM868 1262l271 297 q17 18 37 18h92q16 0 26 -18l170 -297l-135 -101l-160 129l-202 -129zM920 459h149v311h-29z" />
<glyph unicode="&#xe3;" horiz-adv-x="1552" d="M-512 98h879l-39 -90zM-428 297h879l-39 -90zM-344 494h876l-36 -91zM-260 690h876l-38 -90zM-176 887h874l-36 -90zM-92 1083h872l-37 -88zM133 1319h602l39 -94zM133 1481h750l-148 -95zM393 0l455 1083h508l80 -1083h-359l-8 166h-258l-63 -166h-355zM788 1350 q264 166 294 177t55.5 11t42 -4t33 -15.5t26.5 -19.5q16 -10 59 -53l177 82l67 -166q-264 -166 -293.5 -177t-55.5 -11t-42 4t-32.5 15t-26.5 19q-16 10 -60 54l-174 -82zM920 459h149v311h-29z" />
<glyph unicode="&#xe4;" horiz-adv-x="1552" d="M-512 98h879l-39 -90zM-428 297h879l-39 -90zM-344 494h876l-36 -91zM-260 690h876l-38 -90zM-176 887h874l-36 -90zM-92 1083h872l-37 -88zM127 1319h612v-29q0 -37 6 -65zM127 1481h647q-18 -35 -29 -95zM393 0l455 1083h508l80 -1083h-359l-8 166h-258l-63 -166h-355z M801 1290q0 121 42 171t129 50t116.5 -22.5t29.5 -75.5q0 -121 -43 -171t-129 -50t-115.5 22.5t-29.5 75.5zM920 459h149v311h-29zM1227 1290q0 121 42 171t129 50t116.5 -22.5t29.5 -75.5q0 -121 -42 -171t-129 -50t-116.5 22.5t-29.5 75.5z" />
<glyph unicode="&#xe5;" horiz-adv-x="1552" d="M-512 98h879l-39 -90zM-428 297h879l-39 -90zM-344 494h876l-36 -91zM-260 690h876l-38 -90zM-176 887h874l-36 -90zM-92 1083h872l-37 -88zM260 1481h631q-17 -54 -21 -95zM264 1319h600v-14q0 -43 10 -80zM393 0l455 1083h508l80 -1083h-359l-8 166h-258l-63 -166h-355 zM920 459h149v311h-29zM926 1305q0 152 71.5 230.5t202.5 78.5q190 0 191 -164q0 -152 -72 -230.5t-203 -78.5q-190 0 -190 164zM1059 1282h82q55 0 70.5 14.5t19.5 38.5l24 138h-75q-59 0 -76 -14.5t-21 -37.5z" />
<glyph unicode="&#xe6;" horiz-adv-x="1914" d="M-512 98h879l-39 -90zM-428 297h879l-39 -90zM-344 494h876l-36 -91zM-260 690h876l-38 -90zM-176 887h874l-36 -90zM-92 1083h872l-37 -88zM393 0l455 1083h1050l-96 -307h-424l11 -139h362l-35 -197h-313l10 -139h352l-53 -301h-635l-8 166h-258l-63 -166h-355z M920 459h149v311h-29z" />
<glyph unicode="&#xe7;" horiz-adv-x="1269" d="M-451 494h818q-8 -63 -11 -86zM-442 297h796q0 -33 8 -86zM-414 690h820l-19 -86zM-332 887h809q-25 -53 -35 -82zM-264 98h661q25 -49 54 -75zM-57 1083h712q-49 -29 -84 -67zM70 -266h374l-18 -64zM96 -119h391l-18 -63zM414 319q0 -178 93 -261t289.5 -82.5 t307.5 47.5l33 307q-123 -45 -228.5 -45t-148.5 10l80 438q8 41 41.5 55.5t117.5 14.5t187 -29l104 285q-74 45 -272 45q-276 0 -402.5 -133t-177.5 -430q-25 -141 -24 -222zM500 -299l53 180h63q41 0 54.5 11.5t21.5 54.5l17 96h118q117 -49 117 -174q0 -84 -65.5 -145.5 t-175 -61.5t-203.5 39z" />
<glyph unicode="&#xe8;" horiz-adv-x="1343" d="M-518 98h885l-17 -92zM-483 297h884l-16 -92zM-449 494h885l-16 -93zM-414 690h885l-16 -92zM-379 887h885l-17 -92zM-344 1083h883l-15 -92zM-178 1481h868q-6 -8 -20 -23q-27 -30 -39 -57zM-117 1315h752q12 -19 84 -80zM418 0l188 1083h721l-96 -307h-334l-25 -139 h308l-35 -197h-305l-25 -139h379l-53 -301h-723zM684 1363.5q0 14.5 18 37.5l129 151q18 23 33 23t27 -8l387 -285l-84 -117l-356 72q-33 6 -54 25l-92 79q-8 8 -8 22.5z" />
<glyph unicode="&#xe9;" horiz-adv-x="1343" d="M-518 98h885l-17 -92zM-483 297h884l-16 -92zM-449 494h885l-16 -93zM-414 690h885l-16 -92zM-379 887h885l-17 -92zM-344 1083h883l-15 -92zM-207 1315h846l-109 -80zM20 1481h846l-108 -80zM418 0l188 1083h721l-96 -307h-334l-25 -139h308l-35 -197h-305l-25 -139h379 l-53 -301h-723zM702 1282l388 285q12 8 26 8t33 -23l129 -151q18 -20 18 -33.5t-5 -21t-95 -84.5q-20 -18 -53 -25l-357 -72z" />
<glyph unicode="&#xea;" horiz-adv-x="1343" d="M-518 98h885l-17 -92zM-483 297h884l-16 -92zM-449 494h885l-16 -93zM-414 690h885l-16 -92zM-379 887h885l-17 -92zM-344 1083h883l-15 -92zM-102 1315h749l-74 -80zM63 1481h734l-72 -80zM418 0l188 1083h721l-96 -307h-334l-25 -139h308l-35 -197h-305l-25 -139h379 l-53 -301h-723zM682 1262l270 297q14 18 37 18h92q16 0 27 -18l170 -297l-135 -101l-160 129l-203 -129z" />
<glyph unicode="&#xeb;" horiz-adv-x="1343" d="M-518 98h885l-17 -92zM-483 297h884l-16 -92zM-449 494h885l-16 -93zM-414 690h885l-16 -92zM-379 887h885l-17 -92zM-344 1083h883l-15 -92zM-59 1319h612v-29q0 -37 6 -65zM-59 1481h647q-18 -35 -29 -95zM418 0l188 1083h721l-96 -307h-334l-25 -139h308l-35 -197 h-305l-25 -139h379l-53 -301h-723zM614 1290q0 121 42 171t129 50t117 -22.5t30 -75.5q0 -121 -43 -171t-129 -50t-116 22.5t-30 75.5zM1040 1290q0 121 42 171t129 50t117 -22.5t30 -75.5q0 -121 -42 -171t-129 -50t-117 22.5t-30 75.5z" />
<glyph unicode="&#xec;" horiz-adv-x="1001" d="M-518 98h885l-17 -92zM-483 297h884l-16 -92zM-449 494h885l-16 -93zM-414 690h885l-16 -92zM-379 887h885l-17 -92zM-350 1481h868q-6 -8 -20 -23q-27 -30 -39 -57zM-344 1083h883l-15 -92zM-289 1315h752q12 -19 84 -80zM418 0l188 1083h361l-191 -1083h-358z M512 1363.5q0 14.5 18 37.5l129 151q18 23 33 23t27 -8l387 -285l-84 -117l-356 72q-33 6 -54 25l-92 79q-8 8 -8 22.5z" />
<glyph unicode="&#xed;" horiz-adv-x="1001" d="M-518 98h885l-17 -92zM-483 297h884l-16 -92zM-449 494h885l-16 -93zM-414 690h885l-16 -92zM-379 887h885l-17 -92zM-344 1083h883l-15 -92zM-336 1315h846l-109 -80zM-109 1481h846l-108 -80zM418 0l188 1083h361l-191 -1083h-358zM573 1282l388 285q12 8 26 8t33 -23 l129 -151q18 -20 18 -33.5t-5 -21t-95 -84.5q-20 -18 -53 -25l-357 -72z" />
<glyph unicode="&#xee;" horiz-adv-x="1001" d="M-518 98h885l-17 -92zM-483 297h884l-16 -92zM-449 494h885l-16 -93zM-414 690h885l-16 -92zM-379 887h885l-17 -92zM-344 1083h883l-15 -92zM-272 1315h749l-74 -80zM-106 1481h733l-72 -80zM418 0l188 1083h361l-191 -1083h-358zM512 1262l270 297q17 18 37 18h92 q16 0 27 -18l170 -297l-135 -101l-160 129l-203 -129z" />
<glyph unicode="&#xef;" horiz-adv-x="1001" d="M-518 98h885l-17 -92zM-483 297h884l-16 -92zM-449 494h885l-16 -93zM-414 690h885l-16 -92zM-379 887h885l-17 -92zM-344 1083h883l-15 -92zM-209 1319h612v-29q0 -37 7 -65zM-209 1481h647q-18 -35 -28 -95zM418 0l188 1083h361l-191 -1083h-358zM465 1290 q0 121 42 171t129 50t116.5 -22.5t29.5 -75.5q0 -121 -43 -171t-129 -50t-115.5 22.5t-29.5 75.5zM891 1290q0 121 42 171t129 50t116.5 -22.5t29.5 -75.5q0 -121 -42 -171t-129 -50t-116.5 22.5t-29.5 75.5z" />
<glyph unicode="&#xf0;" horiz-adv-x="1587" d="M-518 98h885l-17 -92zM-483 297h884l-16 -92zM-449 494h885l-16 -93zM-414 690h885l-16 -92zM-379 887h885l-17 -92zM-344 1083h883l-15 -92zM418 0l188 1083h461q223 0 319.5 -79.5t96.5 -255.5q0 -84 -23 -207q-51 -291 -177 -416t-406 -125h-459zM713 451h209 q39 0 58 9t26 42l24 125h-287zM813 293h119q59 0 91 15.5t40 62.5l59 338q2 8 2 32q0 43 -106 43h-119z" />
<glyph unicode="&#xf1;" horiz-adv-x="1574" d="M-518 98h885l-17 -92zM-483 297h884l-16 -92zM-449 494h885l-16 -93zM-414 690h885l-16 -92zM-379 887h885l-17 -92zM-344 1083h883l-15 -92zM61 1319h603l38 -94zM61 1481h750l-147 -95zM418 0l188 1083h279l213 -403h12l70 403h342l-191 -1083h-278l-211 406h-8 l-72 -406h-344zM717 1350q264 166 293.5 177t55.5 11t42 -4t32.5 -15.5t26.5 -19.5q17 -10 60 -53l176 82l67 -166q-264 -166 -293.5 -177t-55 -11t-42 4t-33 15t-26.5 19q-16 10 -59 54l-175 -82z" />
<glyph unicode="&#xf2;" horiz-adv-x="1554" d="M-424 494h817q-8 -63 -10 -86zM-416 297h797q0 -33 8 -86zM-387 690h819l-18 -86zM-305 887h809q-25 -53 -35 -82zM-238 98h662q25 -49 53 -75zM-74 1481h869q-6 -8 -21 -23q-27 -30 -39 -57zM-31 1083h713q-49 -29 -84 -67zM-12 1315h751q12 -19 84 -80zM442 324 q0 92 23 217q51 295 178 429t399 134q221 0 315.5 -85t94.5 -265q0 -88 -22 -213q-51 -295 -180.5 -430.5t-405.5 -135.5q-217 0 -309.5 85t-92.5 264zM782 287h121q59 0 89 14t40 64l78 428h-125q-57 0 -89 -14.5t-38 -61.5zM788.5 1363.5q-0.5 14.5 18.5 37.5l129 151 q18 23 32.5 23t26.5 -8l387 -285l-84 -117l-356 72q-33 6 -53 25l-92 79q-8 8 -8.5 22.5z" />
<glyph unicode="&#xf3;" horiz-adv-x="1554" d="M-424 494h817q-8 -63 -10 -86zM-416 297h797q0 -33 8 -86zM-387 690h819l-18 -86zM-305 887h809q-25 -53 -35 -82zM-238 98h662q25 -49 53 -75zM-78 1315h846l-109 -80zM-31 1083h713q-49 -29 -84 -67zM150 1481h845l-108 -80zM442 324q0 92 23 217q51 295 178 429 t399 134q221 0 315.5 -85t94.5 -265q0 -88 -22 -213q-51 -295 -180.5 -430.5t-405.5 -135.5q-217 0 -309.5 85t-92.5 264zM782 287h121q59 0 89 14t40 64l78 428h-125q-57 0 -89 -14.5t-38 -61.5zM831 1282l388 285q12 8 26.5 8t32.5 -23l129 -151q18 -20 18 -33.5t-5 -21 t-95 -84.5q-20 -18 -53 -25l-357 -72z" />
<glyph unicode="&#xf4;" horiz-adv-x="1554" d="M-424 494h817q-8 -63 -10 -86zM-416 297h797q0 -33 8 -86zM-387 690h819l-18 -86zM-305 887h809q-25 -53 -35 -82zM-238 98h662q25 -49 53 -75zM-31 1083h713q-49 -29 -84 -67zM-16 1315h749l-74 -80zM150 1481h733l-72 -80zM442 324q0 92 23 217q51 295 178 429t399 134 q221 0 315.5 -85t94.5 -265q0 -88 -22 -213q-51 -295 -180.5 -430.5t-405.5 -135.5q-217 0 -309.5 85t-92.5 264zM768 1262l270 297q14 18 37 18h92q16 0 27 -18l170 -297l-135 -101l-160 129l-203 -129zM782 287h121q59 0 89 14t40 64l78 428h-125q-57 0 -89 -14.5 t-38 -61.5z" />
<glyph unicode="&#xf5;" horiz-adv-x="1554" d="M-424 494h817q-8 -63 -10 -86zM-416 297h797q0 -33 8 -86zM-387 690h819l-18 -86zM-305 887h809q-25 -53 -35 -82zM-238 98h662q25 -49 53 -75zM-31 1083h713q-49 -29 -84 -67zM72 1319h602l39 -94zM72 1481h749l-147 -95zM442 324q0 92 23 217q51 295 178 429t399 134 q221 0 315.5 -85t94.5 -265q0 -88 -22 -213q-51 -295 -180.5 -430.5t-405.5 -135.5q-217 0 -309.5 85t-92.5 264zM727 1350q264 166 294 177t55.5 11t42 -4t32.5 -15.5t27 -19.5q16 -10 59 -53l176 82l68 -166q-264 -166 -294 -177t-55.5 -11t-42 4t-33 15t-26.5 19 q-16 10 -59 54l-174 -82zM782 287h121q59 0 89 14t40 64l78 428h-125q-57 0 -89 -14.5t-38 -61.5z" />
<glyph unicode="&#xf6;" horiz-adv-x="1554" d="M-424 494h817q-8 -63 -10 -86zM-416 297h797q0 -33 8 -86zM-387 690h819l-18 -86zM-305 887h809q-25 -53 -35 -82zM-238 98h662q25 -49 53 -75zM-31 1083h713q-49 -29 -84 -67zM68 1319h612v-29q0 -37 6 -65zM68 1481h647q-18 -35 -29 -95zM442 324q0 92 23 217 q51 295 178 429t399 134q221 0 315.5 -85t94.5 -265q0 -88 -22 -213q-51 -295 -180.5 -430.5t-405.5 -135.5q-217 0 -309.5 85t-92.5 264zM741 1290q0 121 42 171t129 50t117 -22.5t30 -75.5q0 -121 -43 -171t-129 -50t-116 22.5t-30 75.5zM782 287h121q59 0 89 14t40 64 l78 428h-125q-57 0 -89 -14.5t-38 -61.5zM1167 1290q0 121 42 171t129 50t117 -22.5t30 -75.5q0 -121 -42 -171t-129 -50t-117 22.5t-30 75.5z" />
<glyph unicode="&#xf7;" d="M145 492l52 294h886l-51 -294h-887zM375 143q0 10 35 199q10 57 86 57h155q68 0 68 -43l-35 -198q-10 -59 -86 -60h-156q-68 0 -67 45zM512 922q0 10 35 198q10 57 86 58h155q68 0 68 -43l-35 -199q-10 -59 -86 -59h-155q-68 0 -68 45z" />
<glyph unicode="&#xf8;" horiz-adv-x="1554" d="M-424 494h817q-8 -63 -10 -86zM-416 297h797q0 -33 8 -86zM-387 690h819l-18 -86zM-305 887h809q-25 -53 -35 -82zM-238 98h662q25 -49 53 -75zM-31 1083h713q-49 -29 -84 -67zM442 324q0 92 23 217q51 295 178 429t399 134q221 0 315.5 -85t94.5 -265q0 -88 -22 -213 q-51 -295 -180.5 -430.5t-405.5 -135.5q-217 0 -309.5 85t-92.5 264zM563 -262l684 1603h82l-680 -1603h-86zM782 287h121q59 0 89 14t40 64l78 428h-125q-57 0 -89 -14.5t-38 -61.5z" />
<glyph unicode="&#xf9;" horiz-adv-x="1488" d="M-455 297h867v-41q0 -35 2 -51zM-449 494h885l-16 -93zM-414 690h885l-16 -92zM-379 887h885l-17 -92zM-377 98h809q23 -57 60 -92zM-344 1083h883l-15 -92zM-106 1481h868q-6 -8 -21 -23q-27 -30 -39 -57zM-45 1315h752q12 -19 84 -80zM473 256q0 86 23 217l108 610h344 l-139 -796h102q55 0 77 13t30 65l129 718h344l-107 -610q-49 -287 -158.5 -392.5t-373.5 -105.5q-211 0 -295 62.5t-84 218.5zM756 1363.5q0 14.5 18 37.5l129 151q18 23 32.5 23t27.5 -8l387 -285l-84 -117l-357 72q-33 6 -53 25l-92 79q-8 8 -8 22.5z" />
<glyph unicode="&#xfa;" horiz-adv-x="1488" d="M-455 297h867v-41q0 -35 2 -51zM-449 494h885l-16 -93zM-414 690h885l-16 -92zM-379 887h885l-17 -92zM-377 98h809q23 -57 60 -92zM-344 1083h883l-15 -92zM-90 1315h846l-109 -80zM137 1481h846l-109 -80zM473 256q0 86 23 217l108 610h344l-139 -796h102q55 0 77 13 t30 65l129 718h344l-107 -610q-49 -287 -158.5 -392.5t-373.5 -105.5q-211 0 -295 62.5t-84 218.5zM819 1282l387 285q12 8 26.5 8t33.5 -23l129 -151q18 -20 18 -33.5t-5 -21t-95 -84.5q-20 -18 -53 -25l-357 -72z" />
<glyph unicode="&#xfb;" horiz-adv-x="1488" d="M-455 297h867v-41q0 -35 2 -51zM-449 494h885l-16 -93zM-414 690h885l-16 -92zM-379 887h885l-17 -92zM-377 98h809q23 -57 60 -92zM-344 1083h883l-15 -92zM-6 1315h749l-73 -80zM160 1481h733l-72 -80zM473 256q0 86 23 217l108 610h344l-139 -796h102q55 0 77 13 t30 65l129 718h344l-107 -610q-49 -287 -158.5 -392.5t-373.5 -105.5q-211 0 -295 62.5t-84 218.5zM778 1262l271 297q16 18 36 18h93q16 0 26 -18l170 -297l-135 -101l-160 129l-202 -129z" />
<glyph unicode="&#xfc;" horiz-adv-x="1488" d="M-455 297h867v-41q0 -35 2 -51zM-449 494h885l-16 -93zM-414 690h885l-16 -92zM-379 887h885l-17 -92zM-377 98h809q23 -57 60 -92zM-344 1083h883l-15 -92zM53 1319h613v-29q0 -37 6 -65zM53 1481h647q-18 -35 -28 -95zM473 256q0 86 23 217l108 610h344l-139 -796h102 q55 0 77 13t30 65l129 718h344l-107 -610q-49 -287 -158.5 -392.5t-373.5 -105.5q-211 0 -295 62.5t-84 218.5zM727 1290q0 121 42 171t129 50t116.5 -22.5t29.5 -75.5q0 -121 -43 -171t-129 -50t-115.5 22.5t-29.5 75.5zM1153 1290q0 121 42 171t129 50t116.5 -22.5 t29.5 -75.5q0 -121 -42 -171t-129 -50t-116.5 22.5t-29.5 75.5z" />
<glyph unicode="&#xfd;" horiz-adv-x="1300" d="M-477 1083h850l18 -92zM-436 887h850l18 -92zM-395 690h850l18 -92zM-389 98h885l-17 -92zM-354 297h884l-16 -92zM-354 494h848l20 -93zM-256 1315h846l-109 -80zM-29 1481h846l-108 -80zM434 1083h352l45 -393h13l170 393h358l-434 -774l-51 -309h-346l53 309z M653 1282l387 285q12 8 26.5 8t33.5 -23l129 -151q18 -20 18 -33.5t-5 -21t-95 -84.5q-20 -18 -53 -25l-357 -72z" />
<glyph unicode="&#xfe;" horiz-adv-x="1531" d="M-518 98h885l-17 -92zM-483 297h884l-16 -92zM-449 494h885l-16 -93zM-414 690h885l-16 -92zM-379 887h885l-17 -92zM-344 1083h883l-15 -92zM418 0l186 1083h348l-22 -127h174q297 0 297 -280q0 -127 -37 -233.5t-80 -168t-122 -104.5t-179 -43h-199l-22 -127h-344z M834 403h63q47 0 73.5 11.5t33.5 48.5l24 139q0 2 2 12q0 43 -88 43h-65z" />
<glyph unicode="&#xff;" horiz-adv-x="1300" d="M-477 1083h850l18 -92zM-436 887h850l18 -92zM-395 690h850l18 -92zM-389 98h885l-17 -92zM-354 297h884l-16 -92zM-354 494h848l20 -93zM-94 1319h612v-29q0 -37 6 -65zM-94 1481h647q-18 -35 -29 -95zM434 1083h352l45 -393h13l170 393h358l-434 -774l-51 -309h-346 l53 309zM580 1290q0 121 42 171t129 50t116.5 -22.5t29.5 -75.5q0 -121 -43 -171t-129 -50t-115.5 22.5t-29.5 75.5zM1006 1290q0 121 42 171t129 50t116.5 -22.5t29.5 -75.5q0 -121 -42 -171t-129 -50t-116.5 22.5t-29.5 75.5z" />
<glyph unicode="&#x152;" horiz-adv-x="2097" d="M-506 494h873q-5 -66 -5 -93zM-487 690h882l-6 -41q-4 -18 -8 -51zM-485 297h852q2 -45 16 -92zM-440 887h884q-4 -14 -24 -92zM-362 98h788q31 -53 80 -92zM-338 1083h868q-37 -68 -45 -90zM-303 1280h1028q-61 -37 -109 -84zM422 383q0 100 28.5 265t75.5 285t127 208 q154 170 486 170q143 0 241 -31h729l-108 -328h-379l-29 -172h351l-54 -297h-350l-27 -155h439l-58 -328h-739q-107 -31 -252 -31q-260 0 -370.5 101.5t-110.5 312.5zM809 319h162q115 0 145 41q14 20 23 54l96 547h-164q-78 0 -117 -19.5t-51 -89.5z" />
<glyph unicode="&#x153;" horiz-adv-x="1894" d="M-424 494h817q-8 -63 -10 -86zM-416 297h797q0 -33 8 -86zM-387 690h819l-18 -86zM-305 887h809q-25 -53 -35 -82zM-238 98h662q25 -49 53 -75zM-31 1083h713q-49 -29 -84 -67zM442 324q0 92 23 217q51 295 178 429t399 134q98 0 185 -21h651l-96 -307h-334l-21 -117h308 l-43 -241h-306l-20 -117h379l-53 -301h-639q-92 -25 -209 -25q-217 0 -309.5 85t-92.5 264zM782 287h121q61 0 91 14t38 64l74 428h-121q-57 0 -88 -14.5t-39 -61.5z" />
<glyph unicode="&#x178;" horiz-adv-x="1339" d="M-494 1280h848l19 -92zM-457 1083h848l19 -92zM-418 887h848l19 -92zM-389 98h883l-17 -92zM-381 690h850l18 -92zM-354 297h880l-14 -92zM-342 494h850l18 -93zM-39 1544h612v-28q0 -37 7 -66zM-39 1706h647q-18 -35 -28 -94zM416 1280h430l26 -451h15l188 451h430 l-516 -932l-59 -348h-389l59 348zM635 1516q0 120 42 170.5t129 50.5t116.5 -22.5t29.5 -76.5q0 -121 -43 -171t-129 -50t-115.5 22.5t-29.5 76.5zM1061 1516q0 120 42 170.5t129 50.5t116.5 -22.5t29.5 -76.5q0 -121 -42 -171t-129 -50t-116.5 22.5t-29.5 76.5z" />
<glyph unicode="&#x2c6;" horiz-adv-x="788" d="M-702 1315h749l-74 -80zM-537 1481h734l-72 -80zM82 1262l270 297q17 18 37 18h92q16 0 27 -18l170 -297l-135 -101l-160 129l-203 -129z" />
<glyph unicode="&#x2dc;" horiz-adv-x="937" d="M-563 1319h602l39 -94zM-563 1481h749l-147 -95zM92 1350q264 166 294 177t55.5 11t42 -4t32.5 -15.5t27 -19.5q16 -10 59 -53l176 82l68 -166q-264 -166 -294 -177t-55.5 -11t-42 4t-32.5 15t-27 19q-16 10 -59 54l-174 -82z" />
<glyph unicode="&#x2000;" horiz-adv-x="919" />
<glyph unicode="&#x2001;" horiz-adv-x="1839" />
<glyph unicode="&#x2002;" horiz-adv-x="919" />
<glyph unicode="&#x2003;" horiz-adv-x="1839" />
<glyph unicode="&#x2004;" horiz-adv-x="613" />
<glyph unicode="&#x2005;" horiz-adv-x="459" />
<glyph unicode="&#x2006;" horiz-adv-x="306" />
<glyph unicode="&#x2007;" horiz-adv-x="306" />
<glyph unicode="&#x2008;" horiz-adv-x="229" />
<glyph unicode="&#x2009;" horiz-adv-x="367" />
<glyph unicode="&#x200a;" horiz-adv-x="102" />
<glyph unicode="&#x2010;" horiz-adv-x="716" d="M0 494h680l-16 -93zM35 690h680l-17 -92z" />
<glyph unicode="&#x2011;" horiz-adv-x="716" d="M0 494h680l-16 -93zM35 690h680l-17 -92z" />
<glyph unicode="&#x2012;" horiz-adv-x="716" d="M0 494h680l-16 -93zM35 690h680l-17 -92z" />
<glyph unicode="&#x2013;" horiz-adv-x="1218" d="M63 494h1049l-16 -93zM98 690h1049l-17 -92z" />
<glyph unicode="&#x2014;" horiz-adv-x="1748" d="M92 494h1540l-16 -93zM127 690h1540l-16 -92z" />
<glyph unicode="&#x2018;" horiz-adv-x="737" d="M-446 887h675l-2 -13q-12 -47 -12 -79zM-365 1083h676q-31 -49 -47 -90zM-340 690h565q20 -66 90 -92zM276 760.5q0 58.5 11 99.5l6 25q25 94 98 209l182 278l164 -59l-119 -297q51 -8 73 -33t22 -70q0 -272 -254 -272q-100 0 -141.5 30.5t-41.5 89z" />
<glyph unicode="&#x2019;" horiz-adv-x="937" d="M-274 690h675l-34 -90zM-268 1083h674q-11 -20 -11 -77v-15zM-203 887h639q10 -13 35 -23l-27 -67zM436 608l115 295q-94 16 -94 103q0 25 6 55q24 123 75.5 171t164 48t152.5 -30.5t40 -102.5q0 -141 -115 -320l-180 -278z" />
<glyph unicode="&#x201a;" horiz-adv-x="665" d="M-326 297h473q-12 -41 -18 -92zM-315 98h436q25 -78 78 -100zM164 -250l115 295q-94 16 -95 102q0 25 6 56q25 123 76 171t164 48t153 -31t40 -102q0 -141 -115 -320l-180 -278z" />
<glyph unicode="&#x201c;" horiz-adv-x="1222" d="M-446 887h675l-2 -13q-12 -47 -12 -79zM-365 1083h676q-31 -49 -47 -90zM-340 690h565q20 -66 90 -92zM276 760.5q0 58.5 11 99.5l6 25q25 94 98 209l182 278l164 -59l-119 -297q51 -8 73 -33t22 -70q0 -272 -254 -272q-100 0 -141.5 30.5t-41.5 89zM762 760.5 q0 58.5 10 99.5l6 25q25 94 99 209l182 278l164 -59l-119 -297q51 -8 72.5 -33t21.5 -70q0 -272 -254 -272q-100 0 -141 30.5t-41 89z" />
<glyph unicode="&#x201d;" horiz-adv-x="1425" d="M-274 690h675l-34 -90zM-268 1083h674q-11 -20 -11 -77v-15zM-203 887h639q10 -13 35 -23l-27 -67zM436 608l115 295q-94 16 -94 103q0 25 6 55q24 123 75.5 171t164 48t152.5 -30.5t40 -102.5q0 -141 -115 -320l-180 -278zM924 608l114 295q-94 16 -94 103q0 25 6 55 q25 123 76 171t164 48t152.5 -30.5t39.5 -102.5q0 -141 -114 -320l-181 -278z" />
<glyph unicode="&#x201e;" horiz-adv-x="1153" d="M-326 297h473q-12 -41 -18 -92zM-315 98h436q25 -78 78 -100zM164 -250l115 295q-94 16 -95 102q0 25 6 56q25 123 76 171t164 48t153 -31t40 -102q0 -141 -115 -320l-180 -278zM651 -250l115 295q-94 16 -94 102q0 25 6 56q24 123 75.5 171t164 48t152.5 -31t40 -102 q0 -141 -115 -320l-180 -278z" />
<glyph unicode="&#x2022;" horiz-adv-x="1077" d="M-512 494h872q-4 -62 -4 -93zM-465 690h883q-23 -47 -37 -90zM-422 297h793q20 -57 75 -92zM418 399q0 395 340 396q129 0 181 -40t52 -130q0 -186 -73.5 -291t-260.5 -105q-133 0 -186 39t-53 131z" />
<glyph unicode="&#x2026;" horiz-adv-x="1996" d="M-326 297h473q-12 -41 -18 -92zM-315 98h436q4 -59 22 -92zM182 103.5q0 56.5 8 99.5q21 121 73 170t166 49t154 -31t40 -88t-9 -100q-20 -121 -72.5 -168t-166 -47t-153.5 29.5t-40 86zM340 297h473q-12 -41 -18 -92zM350 98h436q5 -59 23 -92zM848 103.5q0 56.5 8 99.5 q21 121 73 170t165.5 49t153.5 -31t40 -88t-8 -100q-20 -121 -72.5 -168t-166 -47t-153.5 29.5t-40 86zM1006 297h473q-12 -41 -19 -92zM1016 98h436q5 -59 23 -92zM1513 103.5q0 56.5 9 99.5q20 121 72.5 170t166 49t153.5 -31t40 -88t-8 -100q-20 -121 -72.5 -168 t-166.5 -47t-154 29.5t-40 86z" />
<glyph unicode="&#x202f;" horiz-adv-x="367" />
<glyph unicode="&#x2039;" horiz-adv-x="1085" d="M-410 559h680l-16 -92zM-315 362h581l80 -92zM-258 756h678l-103 -84zM-141 164h579l82 -92zM-16 952h678l-103 -84zM307 410l35 204l440 359l140 -105l-256 -356l131 -356l-176 -105z" />
<glyph unicode="&#x203a;" horiz-adv-x="1067" d="M-307 559h850l14 -37l-41 -55zM-213 362h653l-67 -92zM-156 756h625l33 -84zM-39 164h336l-14 -21l94 -71zM86 952h424l-94 -55l10 -29zM367 156l258 356l-133 356l176 105l313 -359l-35 -204l-440 -359z" />
<glyph unicode="&#x205f;" horiz-adv-x="459" />
<glyph unicode="&#x20ac;" horiz-adv-x="1622" d="M-442 494h884l-24 -93zM-389 690h883l-25 -92zM-340 297h856q2 -37 10 -92zM-336 887h883l-25 -92zM-231 98h792q29 -55 74 -92zM-166 1083h881q-25 -43 -45 -90zM27 1280h880q-55 -33 -104 -84zM485 422l43 168h826l-43 -168h-312l-24 -109q73 -16 151 -16q158 0 295 49 l-41 -323q-131 -53 -360 -53.5t-335.5 83.5t-106.5 285q0 23 4 84h-97zM561 692l43 168h82q78 244 227 347.5t428 103.5q139 0 283 -39l-108 -299h-263q-39 0 -63.5 -5t-48.5 -30q-29 -27 -37 -78h326l-46 -168h-823z" />
<glyph unicode="&#x2122;" horiz-adv-x="1859" d="M-410 887h779l-17 -92zM-375 1083h776l-16 -92zM-340 1280h612l-14 -78zM332 1264l43 235h606l-43 -235h-168l-98 -562h-273l99 562h-166zM834 702l190 797h344v-303h14l115 303h342l-94 -797h-268l39 304h-13l-121 -304h-186l-16 304h-11l-67 -304h-268z" />
<glyph unicode="&#x25fc;" horiz-adv-x="1085" d="M0 0v1085h1085v-1085h-1085z" />
</font>
</defs>
</svg>
